<?xml version="1.0" encoding="utf-8"?>
<!-- Generator: Adobe Illustrator 23.0.2, SVG Export Plug-In . SVG Version: 6.00 Build 0)  -->
<svg version="1.1" id="Layer_1" xmlns="http://www.w3.org/2000/svg" xmlns:xlink="http://www.w3.org/1999/xlink" x="0px" y="0px"
	 viewBox="0 0 595.28 260.79" style="enable-background:new 0 0 595.28 260.79;" xml:space="preserve">
<style type="text/css">
	.st0{fill-rule:evenodd;clip-rule:evenodd;fill:#C5CBD5;}
	.st1{fill-rule:evenodd;clip-rule:evenodd;fill:#C5CBD5;}
	.st2{fill-rule:evenodd;clip-rule:evenodd;fill:#C5CBD5;}
	.st3{fill-rule:evenodd;clip-rule:evenodd;fill:none;stroke:#C5CBD5;stroke-width:2.7878;stroke-miterlimit:10;}
	.st4{fill-rule:evenodd;clip-rule:evenodd;fill:none;stroke:#C5CBD5;stroke-width:1.3893;stroke-miterlimit:10;}
	.st5{fill-rule:evenodd;clip-rule:evenodd;fill:#C5CBD5;}
	.st6{fill-rule:evenodd;clip-rule:evenodd;fill:#C5CBD5;}
	.st7{fill-rule:evenodd;clip-rule:evenodd;fill:#C5CBD5;}
	.st8{fill-rule:evenodd;clip-rule:evenodd;fill:#C5CBD5;}
	.st9{fill-rule:evenodd;clip-rule:evenodd;fill:#C5CBD5;}
	.st10{fill-rule:evenodd;clip-rule:evenodd;fill:#C5CBD5;}
	.st11{fill-rule:evenodd;clip-rule:evenodd;fill:#C5CBD5;}
	.st12{fill-rule:evenodd;clip-rule:evenodd;fill:#C5CBD5;}
	.st13{fill-rule:evenodd;clip-rule:evenodd;fill:#C5CBD5;}
	.st14{fill-rule:evenodd;clip-rule:evenodd;fill:#C5CBD5;}
	.st15{fill-rule:evenodd;clip-rule:evenodd;fill:#C5CBD5;}
	.st16{fill:#C5CBD5;}
	.st17{fill:#C5CBD5;}
	.st18{fill-rule:evenodd;clip-rule:evenodd;fill:#C5CBD5;}
	.st19{fill-rule:evenodd;clip-rule:evenodd;fill:#C5CBD5;}
	.st20{fill-rule:evenodd;clip-rule:evenodd;fill:#C5CBD5;}
</style>
<path class="st0" d="M429.78,141.73c-0.41-0.91,0.52-6.5,0.52-6.5c3.27,0.54,6.55,1.02,6.55,1.02s2.41,3.72,4.16,4.2
	c1.75,0.48,4.28,2.16,5.37,2.87c1.09,0.7,2.76-0.57,2.76-0.57s1.54,0.29,1.92-0.49c0.38-0.78,0.61-1.02,0.61-1.02
	s0.5-0.45,1.09-1.03c0.59-0.59,0.34-1.02,0.34-1.02s0.95-0.3,1.12-0.99c0.17-0.69,0.09-1.53-0.53-2.44
	c-0.62-0.91-2.65-1.67-2.65-1.67s-0.44-0.85-1-1.04c-0.56-0.2-4.09-1.55-4.55-1.89c-0.47-0.34-2.6-0.59-3.02-0.41
	c-0.23,0.1-4.99-1.82-9.78-3.92c0,0-0.13-0.52-0.13-1.19c0-0.66,0.33-1.82,0.55-2.87c0.22-1.05,0.94-6.25,0.94-6.25
	s0.77-2.32,0.94-3.65c0.17-1.33-0.22-0.99,0.06-3.26c0.28-2.27,0.28-3.98,0.28-3.98c2.43-3.48,0.22-6.63-0.22-7.46
	c-0.44-0.83-0.66-1.38-0.66-1.38l-0.17-0.33c0,0-0.06-0.17-0.11-0.33c-0.06-0.17-4.2-9.45-4.59-10.28
	c-0.39-0.83-0.94-2.27-0.61-3.37c0.33-1.11,1.05-1.99,1.99-3.26s1.82-0.66,1.82-0.66c3.59,0.83,8.51-0.66,9.4-1.49
	c0.88-0.83,0.94-1.6,0.94-1.6s0.66-0.11,1.22-0.83c0.55-0.72-0.22-0.94-0.22-0.94c0.88-0.39,0.66-1.27,0.66-1.27s0,0,0.17-0.72
	c0.17-0.72-0.17-1.33-0.17-1.33s0.77-0.66,0.88-1.44c0.11-0.77-0.72-1.27-0.72-1.27l-2.43-1.33c-1.05-0.77-0.11-1.55-0.11-1.55
	c1.33-1.16,0.39-1.44-0.55-2.21c-0.94-0.77-2.43-2.32-2.43-2.32c0.33-1.82-0.83-2.49-1.77-3.26c-0.94-0.77-3.43-0.61-4.92-0.61
	c-1.49,0-1.88,0.17-2.82,0.17c-0.94,0-2.71-0.11-2.71-0.11c-2.1,0.33-6.85,2.54-7.85,3.48c-1,0.94-0.94,2.1-1.99,3.37
	c-1.05,1.27-2.1,3.76-2.1,4.81s-0.77,2.87-0.83,4.04c-0.06,1.16-0.66,2.05-1.49,3.65c-0.83,1.6-1,4.42-1,4.42s-1.77,1.93-3.32,3.26
	c-1.55,1.33-3.48,5.8-3.54,7.3c-0.06,1.49-0.44,3.92-0.44,3.92c-0.66,1.16-1.33,4.81-1.33,4.81c-0.33,6.14,1.82,14.21,2.43,16.2
	c0.61,1.99,2.1,8.18,1.66,9.12c-0.44,0.94-0.72,3.43-0.72,3.43s-1.77,1.77-3.48,5.14c-1.71,3.37-2.05,8.13-1.49,10.28
	c0.55,2.16,2.05,4.42,3.87,5.42s1.38,2.21,1.55,3.7c0.17,1.49,0.77,10.72,0.94,11.83c0.17,1.11,2.76,8.73,2.87,10.17
	c0.11,1.44-0.83,2.54-2.16,3.81c-1.33,1.27-2.54,1.66-3.76,2.1c-0.87,0.31-1.82,1.05-2.29,1.45c-0.21,0.17-0.43,0.32-0.67,0.44
	c-0.62,0.31-1.91,1.01-3.12,1.98c-1.66,1.33-3.43,5.91-4.97,8.24c-1.55,2.32-6.8,9.29-8.57,10.94c-1.77,1.66-2.16,1.55-2.76,2.21
	c-0.61,0.66-1.44,1.82-0.28,3.76c1.16,1.93,1.82,1.88,3.87,3.81c2.05,1.93,3.7,4.86,4.04,5.8c0.33,0.94,1.77,1.6,2.05,1.88
	c0.28,0.28,2.43,0.33,2.43,0.33s0.5-0.11,1.11,0.33c0.61,0.44,1.49,0.17,1.49,0.17s0,0.33,0.94,0.55c0.94,0.22,1.38-0.44,1.38-0.44
	c0.44,0.28,1.22,0.06,1.22,0.06s-0.28-0.22,0.5,0c0.77,0.22,1.38-0.28,1.38-0.28s0.33,0.39,1.44,0.06c1.11-0.33,1.27-0.99,0.77-1.33
	c-0.5-0.33-0.64-0.41-0.64-0.66c0-0.25-1.33-1.24-2.4-1.49c-1.08-0.25-2.65-1.16-2.65-1.16c-2.07-4.56-1.58-1.99-4.06-5.97
	c-2.49-3.98,1.08-6.8,1.08-6.8s5.47-5.22,10.53-8.54c5.06-3.32,7.55-8.96,10.86-9.87c3.32-0.91,5.22-3.81,5.22-3.81
	c0.33,1.24-0.75,3.98-1.99,7.3c-1.24,3.32,0.17,9.29,0.17,9.29s1.99,12.77,2.24,14.51c0.25,1.74-0.66,4.23-0.66,4.23
	s-0.83,1.49-1.08,3.32c-0.25,1.82,1.16,2.98,1.16,2.98c2.9,1.49,4.89,0.75,7.3,0c2.4-0.75,4.64-0.25,5.39-0.17
	c0.75,0.08,3.32-0.5,3.65-0.5c2.9,0.41,3.98,0.17,4.64,0.17c0.66,0,2.24-0.83,2.24-0.83s1.58,0.75,3.15-0.33
	c1.58-1.08-0.58-2.24-0.58-2.24c-0.33-1-2.07-1.16-2.07-1.16c-1-1.49-4.56-0.5-4.56-0.5s-2.32-1.33-4.15-1.41
	c-1.82-0.08-3.07-0.58-3.07-0.58c-3.23-1.66-2.98-5.8-2.98-5.8s1.08-7.3,1.99-12.77c0.91-5.47,0.41-7.38,0.33-9.87
	c-0.08-2.49,1.41-6.88,1.41-6.88c0.83-1.41,1.33-1.82,1.33-3.81c0-1.99-0.66-3.48-1.16-4.31c-0.5-0.83-0.25-1.99-0.58-5.06
	c0,0-0.25-14.26-2.9-18.41c0,0-1.99-2.98-2.49-4.15C429.11,144.22,429.78,141.73,429.78,141.73z"/>
<linearGradient id="SVGID_1_" gradientUnits="userSpaceOnUse" x1="463.5444" y1="130.9305" x2="445.6343" y2="136.9005">
	<stop  offset="0" style="stop-color:#EA7924"/>
	<stop  offset="1" style="stop-color:#EA7924;stop-opacity:0"/>
</linearGradient>
<path class="st1" d="M429.78,141.73c-0.41-0.91,0.52-6.5,0.52-6.5c3.27,0.54,6.55,1.02,6.55,1.02s2.41,3.72,4.16,4.2
	c1.75,0.48,4.28,2.16,5.37,2.87c1.09,0.7,2.76-0.57,2.76-0.57s1.54,0.29,1.92-0.49c0.38-0.78,0.61-1.02,0.61-1.02
	s0.5-0.45,1.09-1.03c0.59-0.59,0.34-1.02,0.34-1.02s0.95-0.3,1.12-0.99c0.17-0.69,0.09-1.53-0.53-2.44
	c-0.62-0.91-2.65-1.67-2.65-1.67s-0.44-0.85-1-1.04c-0.56-0.2-4.09-1.55-4.55-1.89c-0.47-0.34-2.6-0.59-3.02-0.41
	c-0.23,0.1-4.99-1.82-9.78-3.92c0,0-0.13-0.52-0.13-1.19c0-0.66,0.33-1.82,0.55-2.87c0.22-1.05,0.94-6.25,0.94-6.25
	s0.77-2.32,0.94-3.65c0.17-1.33-0.22-0.99,0.06-3.26c0.28-2.27,0.28-3.98,0.28-3.98c2.43-3.48,0.22-6.63-0.22-7.46
	c-0.44-0.83-0.66-1.38-0.66-1.38l-0.17-0.33c0,0-0.06-0.17-0.11-0.33c-0.06-0.17-4.2-9.45-4.59-10.28
	c-0.39-0.83-0.94-2.27-0.61-3.37c0.33-1.11,1.05-1.99,1.99-3.26s1.82-0.66,1.82-0.66c3.59,0.83,8.51-0.66,9.4-1.49
	c0.88-0.83,0.94-1.6,0.94-1.6s0.66-0.11,1.22-0.83c0.55-0.72-0.22-0.94-0.22-0.94c0.88-0.39,0.66-1.27,0.66-1.27s0,0,0.17-0.72
	c0.17-0.72-0.17-1.33-0.17-1.33s0.77-0.66,0.88-1.44c0.11-0.77-0.72-1.27-0.72-1.27l-2.43-1.33c-1.05-0.77-0.11-1.55-0.11-1.55
	c1.33-1.16,0.39-1.44-0.55-2.21c-0.94-0.77-2.43-2.32-2.43-2.32c0.33-1.82-0.83-2.49-1.77-3.26c-0.94-0.77-3.43-0.61-4.92-0.61
	c-1.49,0-1.88,0.17-2.82,0.17c-0.94,0-2.71-0.11-2.71-0.11c-2.1,0.33-6.85,2.54-7.85,3.48c-1,0.94-0.94,2.1-1.99,3.37
	c-1.05,1.27-2.1,3.76-2.1,4.81s-0.77,2.87-0.83,4.04c-0.06,1.16-0.66,2.05-1.49,3.65c-0.83,1.6-1,4.42-1,4.42s-1.77,1.93-3.32,3.26
	c-1.55,1.33-3.48,5.8-3.54,7.3c-0.06,1.49-0.44,3.92-0.44,3.92c-0.66,1.16-1.33,4.81-1.33,4.81c-0.33,6.14,1.82,14.21,2.43,16.2
	c0.61,1.99,2.1,8.18,1.66,9.12c-0.44,0.94-0.72,3.43-0.72,3.43s-1.77,1.77-3.48,5.14c-1.71,3.37-2.05,8.13-1.49,10.28
	c0.55,2.16,2.05,4.42,3.87,5.42s1.38,2.21,1.55,3.7c0.17,1.49,0.77,10.72,0.94,11.83c0.17,1.11,2.76,8.73,2.87,10.17
	c0.11,1.44-0.83,2.54-2.16,3.81c-1.33,1.27-2.54,1.66-3.76,2.1c-0.87,0.31-1.82,1.05-2.29,1.45c-0.21,0.17-0.43,0.32-0.67,0.44
	c-0.62,0.31-1.91,1.01-3.12,1.98c-1.66,1.33-3.43,5.91-4.97,8.24c-1.55,2.32-6.8,9.29-8.57,10.94c-1.77,1.66-2.16,1.55-2.76,2.21
	c-0.61,0.66-1.44,1.82-0.28,3.76c1.16,1.93,1.82,1.88,3.87,3.81c2.05,1.93,3.7,4.86,4.04,5.8c0.33,0.94,1.77,1.6,2.05,1.88
	c0.28,0.28,2.43,0.33,2.43,0.33s0.5-0.11,1.11,0.33c0.61,0.44,1.49,0.17,1.49,0.17s0,0.33,0.94,0.55c0.94,0.22,1.38-0.44,1.38-0.44
	c0.44,0.28,1.22,0.06,1.22,0.06s-0.28-0.22,0.5,0c0.77,0.22,1.38-0.28,1.38-0.28s0.33,0.39,1.44,0.06c1.11-0.33,1.27-0.99,0.77-1.33
	c-0.5-0.33-0.64-0.41-0.64-0.66c0-0.25-1.33-1.24-2.4-1.49c-1.08-0.25-2.65-1.16-2.65-1.16c-2.07-4.56-1.58-1.99-4.06-5.97
	c-2.49-3.98,1.08-6.8,1.08-6.8s5.47-5.22,10.53-8.54c5.06-3.32,7.55-8.96,10.86-9.87c3.32-0.91,5.22-3.81,5.22-3.81
	c0.33,1.24-0.75,3.98-1.99,7.3c-1.24,3.32,0.17,9.29,0.17,9.29s1.99,12.77,2.24,14.51c0.25,1.74-0.66,4.23-0.66,4.23
	s-0.83,1.49-1.08,3.32c-0.25,1.82,1.16,2.98,1.16,2.98c2.9,1.49,4.89,0.75,7.3,0c2.4-0.75,4.64-0.25,5.39-0.17
	c0.75,0.08,3.32-0.5,3.65-0.5c2.9,0.41,3.98,0.17,4.64,0.17c0.66,0,2.24-0.83,2.24-0.83s1.58,0.75,3.15-0.33
	c1.58-1.08-0.58-2.24-0.58-2.24c-0.33-1-2.07-1.16-2.07-1.16c-1-1.49-4.56-0.5-4.56-0.5s-2.32-1.33-4.15-1.41
	c-1.82-0.08-3.07-0.58-3.07-0.58c-3.23-1.66-2.98-5.8-2.98-5.8s1.08-7.3,1.99-12.77c0.91-5.47,0.41-7.38,0.33-9.87
	c-0.08-2.49,1.41-6.88,1.41-6.88c0.83-1.41,1.33-1.82,1.33-3.81c0-1.99-0.66-3.48-1.16-4.31c-0.5-0.83-0.25-1.99-0.58-5.06
	c0,0-0.25-14.26-2.9-18.41c0,0-1.99-2.98-2.49-4.15C429.11,144.22,429.78,141.73,429.78,141.73z"/>
<linearGradient id="SVGID_2_" gradientUnits="userSpaceOnUse" x1="464.6996" y1="184.6589" x2="433.8545" y2="156.4671">
	<stop  offset="0" style="stop-color:#EA7924"/>
	<stop  offset="1" style="stop-color:#EA7924;stop-opacity:0"/>
</linearGradient>
<path class="st2" d="M429.78,141.73c-0.41-0.91,0.52-6.5,0.52-6.5c3.27,0.54,6.55,1.02,6.55,1.02s2.41,3.72,4.16,4.2
	c1.75,0.48,4.28,2.16,5.37,2.87c1.09,0.7,2.76-0.57,2.76-0.57s1.54,0.29,1.92-0.49c0.38-0.78,0.61-1.02,0.61-1.02
	s0.5-0.45,1.09-1.03c0.59-0.59,0.34-1.02,0.34-1.02s0.95-0.3,1.12-0.99c0.17-0.69,0.09-1.53-0.53-2.44
	c-0.62-0.91-2.65-1.67-2.65-1.67s-0.44-0.85-1-1.04c-0.56-0.2-4.09-1.55-4.55-1.89c-0.47-0.34-2.6-0.59-3.02-0.41
	c-0.23,0.1-4.99-1.82-9.78-3.92c0,0-0.13-0.52-0.13-1.19c0-0.66,0.33-1.82,0.55-2.87c0.22-1.05,0.94-6.25,0.94-6.25
	s0.77-2.32,0.94-3.65c0.17-1.33-0.22-0.99,0.06-3.26c0.28-2.27,0.28-3.98,0.28-3.98c2.43-3.48,0.22-6.63-0.22-7.46
	c-0.44-0.83-0.66-1.38-0.66-1.38l-0.17-0.33c0,0-0.06-0.17-0.11-0.33c-0.06-0.17-4.2-9.45-4.59-10.28
	c-0.39-0.83-0.94-2.27-0.61-3.37c0.33-1.11,1.05-1.99,1.99-3.26s1.82-0.66,1.82-0.66c3.59,0.83,8.51-0.66,9.4-1.49
	c0.88-0.83,0.94-1.6,0.94-1.6s0.66-0.11,1.22-0.83c0.55-0.72-0.22-0.94-0.22-0.94c0.88-0.39,0.66-1.27,0.66-1.27s0,0,0.17-0.72
	c0.17-0.72-0.17-1.33-0.17-1.33s0.77-0.66,0.88-1.44c0.11-0.77-0.72-1.27-0.72-1.27l-2.43-1.33c-1.05-0.77-0.11-1.55-0.11-1.55
	c1.33-1.16,0.39-1.44-0.55-2.21c-0.94-0.77-2.43-2.32-2.43-2.32c0.33-1.82-0.83-2.49-1.77-3.26c-0.94-0.77-3.43-0.61-4.92-0.61
	c-1.49,0-1.88,0.17-2.82,0.17c-0.94,0-2.71-0.11-2.71-0.11c-2.1,0.33-6.85,2.54-7.85,3.48c-1,0.94-0.94,2.1-1.99,3.37
	c-1.05,1.27-2.1,3.76-2.1,4.81s-0.77,2.87-0.83,4.04c-0.06,1.16-0.66,2.05-1.49,3.65c-0.83,1.6-1,4.42-1,4.42s-1.77,1.93-3.32,3.26
	c-1.55,1.33-3.48,5.8-3.54,7.3c-0.06,1.49-0.44,3.92-0.44,3.92c-0.66,1.16-1.33,4.81-1.33,4.81c-0.33,6.14,1.82,14.21,2.43,16.2
	c0.61,1.99,2.1,8.18,1.66,9.12c-0.44,0.94-0.72,3.43-0.72,3.43s-1.77,1.77-3.48,5.14c-1.71,3.37-2.05,8.13-1.49,10.28
	c0.55,2.16,2.05,4.42,3.87,5.42s1.38,2.21,1.55,3.7c0.17,1.49,0.77,10.72,0.94,11.83c0.17,1.11,2.76,8.73,2.87,10.17
	c0.11,1.44-0.83,2.54-2.16,3.81c-1.33,1.27-2.54,1.66-3.76,2.1c-0.87,0.31-1.82,1.05-2.29,1.45c-0.21,0.17-0.43,0.32-0.67,0.44
	c-0.62,0.31-1.91,1.01-3.12,1.98c-1.66,1.33-3.43,5.91-4.97,8.24c-1.55,2.32-6.8,9.29-8.57,10.94c-1.77,1.66-2.16,1.55-2.76,2.21
	c-0.61,0.66-1.44,1.82-0.28,3.76c1.16,1.93,1.82,1.88,3.87,3.81c2.05,1.93,3.7,4.86,4.04,5.8c0.33,0.94,1.77,1.6,2.05,1.88
	c0.28,0.28,2.43,0.33,2.43,0.33s0.5-0.11,1.11,0.33c0.61,0.44,1.49,0.17,1.49,0.17s0,0.33,0.94,0.55c0.94,0.22,1.38-0.44,1.38-0.44
	c0.44,0.28,1.22,0.06,1.22,0.06s-0.28-0.22,0.5,0c0.77,0.22,1.38-0.28,1.38-0.28s0.33,0.39,1.44,0.06c1.11-0.33,1.27-0.99,0.77-1.33
	c-0.5-0.33-0.64-0.41-0.64-0.66c0-0.25-1.33-1.24-2.4-1.49c-1.08-0.25-2.65-1.16-2.65-1.16c-2.07-4.56-1.58-1.99-4.06-5.97
	c-2.49-3.98,1.08-6.8,1.08-6.8s5.47-5.22,10.53-8.54c5.06-3.32,7.55-8.96,10.86-9.87c3.32-0.91,5.22-3.81,5.22-3.81
	c0.33,1.24-0.75,3.98-1.99,7.3c-1.24,3.32,0.17,9.29,0.17,9.29s1.99,12.77,2.24,14.51c0.25,1.74-0.66,4.23-0.66,4.23
	s-0.83,1.49-1.08,3.32c-0.25,1.82,1.16,2.98,1.16,2.98c2.9,1.49,4.89,0.75,7.3,0c2.4-0.75,4.64-0.25,5.39-0.17
	c0.75,0.08,3.32-0.5,3.65-0.5c2.9,0.41,3.98,0.17,4.64,0.17c0.66,0,2.24-0.83,2.24-0.83s1.58,0.75,3.15-0.33
	c1.58-1.08-0.58-2.24-0.58-2.24c-0.33-1-2.07-1.16-2.07-1.16c-1-1.49-4.56-0.5-4.56-0.5s-2.32-1.33-4.15-1.41
	c-1.82-0.08-3.07-0.58-3.07-0.58c-3.23-1.66-2.98-5.8-2.98-5.8s1.08-7.3,1.99-12.77c0.91-5.47,0.41-7.38,0.33-9.87
	c-0.08-2.49,1.41-6.88,1.41-6.88c0.83-1.41,1.33-1.82,1.33-3.81c0-1.99-0.66-3.48-1.16-4.31c-0.5-0.83-0.25-1.99-0.58-5.06
	c0,0-0.25-14.26-2.9-18.41c0,0-1.99-2.98-2.49-4.15C429.11,144.22,429.78,141.73,429.78,141.73z"/>
<line class="st3" x1="452.09" y1="133.36" x2="443" y2="145.95"/>
<line class="st3" x1="450.34" y1="130.74" x2="443.53" y2="144.9"/>
<path class="st4" d="M447.6,136.99c0,0,14.45-46.13,12.5-64.74s18.06-18.34,16.39-6.95c-1.67,11.39-30.01,75.86-30.01,75.86
	s-9.73,41.4-2.22,45.57s-7.78-33.34,1.39-47.24"/>
<path class="st0" d="M323.13,179.82c0,0-0.11,2.32-0.66,3.87c0,0,0.66,1.88-0.99,3.43c-1.66,1.55-6.52,4.09-6.52,4.09
	s-11.83,6.3-17.14,7.08c0,0-4.42,1.44-4.42,3.43c0,0,0.66,2.76,0.77,3.98c0.11,1.22,0.22,2.54,2.1,3.76
	c1.88,1.22,1.33,1.44,1.33,1.44s1.66,0.33,2.21,3.1c0,0,0.22,1.66-0.44,1.66c-0.66,0-0.66,0-0.66,0s-1.44,0.33-1.99-0.22
	c-0.55-0.55-2.54-1.66-3.43-1.66l0.11,1.27c0,0,0.58,1.33-0.58,1.16c-1.16-0.17-2.16-0.58-2.16-0.99s-0.12-1.53-0.41-1.87
	c-0.29-0.33-0.7-0.54-1-0.66s0.08,0.12-0.29-0.12c-0.37-0.25-0.7-0.83-0.79-2.07c-0.08-1.24,0.17-2.36-0.08-3.19
	c-0.25-0.83-1.78-3.07-2.2-4.19s-1.04-3.19-0.54-4.23c0.5-1.04,2.16-2.16,2.16-2.16l7.96-5.6c0,0,4.27-3.98,5.68-4.73
	c1.41-0.75,3.86-2.49,6.34-2.53c0,0,2.16-0.5,3.19-1.08c1.04-0.58,1.62-1.04,1.58-1.7c-0.04-0.66-3.44-10.74-3.69-12.27
	c-0.25-1.53-0.04-3.4-0.33-4.19c-0.29-0.79-2.16-4.64-2.82-5.97c-0.66-1.33-0.95-2.03-1.08-3.36c-0.12-1.33,0.66-5.02,0.95-5.85
	c0.29-0.83,1.78-5.76,2.03-7.42c0.25-1.66,0.17-4.27,0.17-4.27s-3.11-5.27-3.44-7.21l-0.29-0.91c0,0-0.62-1-0.17-1.45
	c0.46-0.46,0.66-0.79,0.66-0.79s1.2-3.03,4.1-6.84c2.9-3.81,4.39-5.06,4.39-5.06s0.12-1.7,0.91-3.69c0.79-1.99,4.93-7.05,4.93-7.05
	s6.72-6.22,7.5-7.05c0.79-0.83,2.65-3.11,3.4-4.52c0.75-1.41,3.48-4.35,6.51-4.81c3.03-0.46,5.68,0,5.68,0s2.2,0.41,2.69,1.33
	c0.5,0.91,0.5,1.29,0.5,1.29s0.33,0.91,0.87,1.24c0.54,0.33,1.58,1.12,2.11,1.62c0.54,0.5,0.75,0.87,1.04,1.08
	c0.29,0.21,0.54,0.04,0.58,0.79c0.04,0.75-0.08,0.91-0.79,1.45l0.04,0.25l1.33,1.91c0,0,0.79,0.83,0.17,1.66
	c0,0,1.33,1.45,1.58,2.86c0,0,0.37,1.16-0.25,1.37c0,0,0.58,0.21,0.29,0.7c-0.29,0.5-0.5,0.91-0.83,1.08
	c-0.33,0.17-2.03,3.28-5.1,2.61c-3.07-0.66-6.63-1.29-7.17-1.33c-0.54-0.04-2.03-0.41-2.07,0.83c-0.04,1.24,0.37,8.58,0.54,10.07
	c0.17,1.49,1.12,6.14-1.33,9.25l-0.33,0.17c0,0-0.25,2.45-1.74,5.06l-0.66,1.49l8.29,0.08c0,0,2.65-0.12,3.98,0.33
	c1.33,0.46,2.11-0.87,2.11-0.87s1.2-0.66,1.82-0.75s1.37-0.37,1.99,0.5c0.62,0.87,0.54,1,2.07,1.12s3.61,0.46,3.61,0.46
	s1.37,0.17,1.41,1.33c0,0,1.37,1.16,0.95,2.36c-0.41,1.2-0.83,1.04-0.83,1.04s0,1.29-0.25,1.62c-0.25,0.33-1.12,0.91-1.12,0.91
	s0.21,0.91-0.54,1.29c-0.75,0.37-1,0.41-1,0.41s0,1-0.7,1.04c-0.7,0.04-1.82,0.25-2.61-0.5c-0.79-0.75-0.95-0.83-0.95-0.83
	l-3.32-1.87l-0.46-0.17c0,0-1.58-0.17-2.32-0.62c0,0-1.37-0.54-4.27-0.08c-2.9,0.46-7.26,1.41-9.87,0.99c0,0-1.78,3.48-4.15,6.55
	c0,0-1.08,1.33-1.49,3.98c-0.41,2.65-0.17,2.32-0.17,2.32s1.87,4.02,3.03,5.18c1.16,1.16,2.82,2.99,4.81,7.13
	c1.99,4.15,2.32,9.12,2.32,9.12l1,2.49c0,0,1.66,2.16,1.66,3.65c0,1.49-1.99,7.3-1.99,7.3s-0.17,5.31-1.49,10.28
	c-1.33,4.98-3.32,9.62-2.98,11.77c0,0,0,2.49,0.33,3.15c0.33,0.66,4.15,0.66,6.96,2.16l1.66-0.17c0,0,0.99-0.58,2.16,1.08
	c-0.08-0.08,2.32,0.66,2.9,2.07c0,0,0.75-0.17,0.66,1.08c-0.25,0-0.75,0.41-0.75,0.41s-0.5,0.66-2.24,0l-1.99,0.25
	c0,0-1.24,0.17-2.49,0c-1.24-0.17-2.24,0.17-3.65,0.17c-1.41,0-1.41,0-1.41,0s-1.99-0.17-2.24-0.33c-0.25-0.17-3.65,0.66-4.89,0.5
	c-1.24-0.17-2.07-0.58-2.65-1.82c-0.58-1.24-0.08-3.07-0.08-3.07s0.83-8.04,0.58-10.7c-0.25-2.65-1.58-7.63-1.08-9.7
	c0.5-2.07,4.15-9.45,3.98-10.45S328.16,184.24,323.13,179.82z"/>
<linearGradient id="SVGID_3_" gradientUnits="userSpaceOnUse" x1="367.4238" y1="149.4522" x2="338.2369" y2="156.0856">
	<stop  offset="0" style="stop-color:#EA7924"/>
	<stop  offset="1" style="stop-color:#EA7924;stop-opacity:0"/>
</linearGradient>
<path class="st5" d="M323.13,179.82c0,0-0.11,2.32-0.66,3.87c0,0,0.66,1.88-0.99,3.43c-1.66,1.55-6.52,4.09-6.52,4.09
	s-11.83,6.3-17.14,7.08c0,0-4.42,1.44-4.42,3.43c0,0,0.66,2.76,0.77,3.98c0.11,1.22,0.22,2.54,2.1,3.76
	c1.88,1.22,1.33,1.44,1.33,1.44s1.66,0.33,2.21,3.1c0,0,0.22,1.66-0.44,1.66c-0.66,0-0.66,0-0.66,0s-1.44,0.33-1.99-0.22
	c-0.55-0.55-2.54-1.66-3.43-1.66l0.11,1.27c0,0,0.58,1.33-0.58,1.16c-1.16-0.17-2.16-0.58-2.16-0.99s-0.12-1.53-0.41-1.87
	c-0.29-0.33-0.7-0.54-1-0.66s0.08,0.12-0.29-0.12c-0.37-0.25-0.7-0.83-0.79-2.07c-0.08-1.24,0.17-2.36-0.08-3.19
	c-0.25-0.83-1.78-3.07-2.2-4.19s-1.04-3.19-0.54-4.23c0.5-1.04,2.16-2.16,2.16-2.16l7.96-5.6c0,0,4.27-3.98,5.68-4.73
	c1.41-0.75,3.86-2.49,6.34-2.53c0,0,2.16-0.5,3.19-1.08c1.04-0.58,1.62-1.04,1.58-1.7c-0.04-0.66-3.44-10.74-3.69-12.27
	c-0.25-1.53-0.04-3.4-0.33-4.19c-0.29-0.79-2.16-4.64-2.82-5.97c-0.66-1.33-0.95-2.03-1.08-3.36c-0.12-1.33,0.66-5.02,0.95-5.85
	c0.29-0.83,1.78-5.76,2.03-7.42c0.25-1.66,0.17-4.27,0.17-4.27s-3.11-5.27-3.44-7.21l-0.29-0.91c0,0-0.62-1-0.17-1.45
	c0.46-0.46,0.66-0.79,0.66-0.79s1.2-3.03,4.1-6.84c2.9-3.81,4.39-5.06,4.39-5.06s0.12-1.7,0.91-3.69c0.79-1.99,4.93-7.05,4.93-7.05
	s6.72-6.22,7.5-7.05c0.79-0.83,2.65-3.11,3.4-4.52c0.75-1.41,3.48-4.35,6.51-4.81c3.03-0.46,5.68,0,5.68,0s2.2,0.41,2.69,1.33
	c0.5,0.91,0.5,1.29,0.5,1.29s0.33,0.91,0.87,1.24c0.54,0.33,1.58,1.12,2.11,1.62c0.54,0.5,0.75,0.87,1.04,1.08
	c0.29,0.21,0.54,0.04,0.58,0.79c0.04,0.75-0.08,0.91-0.79,1.45l0.04,0.25l1.33,1.91c0,0,0.79,0.83,0.17,1.66
	c0,0,1.33,1.45,1.58,2.86c0,0,0.37,1.16-0.25,1.37c0,0,0.58,0.21,0.29,0.7c-0.29,0.5-0.5,0.91-0.83,1.08
	c-0.33,0.17-2.03,3.28-5.1,2.61c-3.07-0.66-6.63-1.29-7.17-1.33c-0.54-0.04-2.03-0.41-2.07,0.83c-0.04,1.24,0.37,8.58,0.54,10.07
	c0.17,1.49,1.12,6.14-1.33,9.25l-0.33,0.17c0,0-0.25,2.45-1.74,5.06l-0.66,1.49l8.29,0.08c0,0,2.65-0.12,3.98,0.33
	c1.33,0.46,2.11-0.87,2.11-0.87s1.2-0.66,1.82-0.75s1.37-0.37,1.99,0.5c0.62,0.87,0.54,1,2.07,1.12s3.61,0.46,3.61,0.46
	s1.37,0.17,1.41,1.33c0,0,1.37,1.16,0.95,2.36c-0.41,1.2-0.83,1.04-0.83,1.04s0,1.29-0.25,1.62c-0.25,0.33-1.12,0.91-1.12,0.91
	s0.21,0.91-0.54,1.29c-0.75,0.37-1,0.41-1,0.41s0,1-0.7,1.04c-0.7,0.04-1.82,0.25-2.61-0.5c-0.79-0.75-0.95-0.83-0.95-0.83
	l-3.32-1.87l-0.46-0.17c0,0-1.58-0.17-2.32-0.62c0,0-1.37-0.54-4.27-0.08c-2.9,0.46-7.26,1.41-9.87,0.99c0,0-1.78,3.48-4.15,6.55
	c0,0-1.08,1.33-1.49,3.98c-0.41,2.65-0.17,2.32-0.17,2.32s1.87,4.02,3.03,5.18c1.16,1.16,2.82,2.99,4.81,7.13
	c1.99,4.15,2.32,9.12,2.32,9.12l1,2.49c0,0,1.66,2.16,1.66,3.65c0,1.49-1.99,7.3-1.99,7.3s-0.17,5.31-1.49,10.28
	c-1.33,4.98-3.32,9.62-2.98,11.77c0,0,0,2.49,0.33,3.15c0.33,0.66,4.15,0.66,6.96,2.16l1.66-0.17c0,0,0.99-0.58,2.16,1.08
	c-0.08-0.08,2.32,0.66,2.9,2.07c0,0,0.75-0.17,0.66,1.08c-0.25,0-0.75,0.41-0.75,0.41s-0.5,0.66-2.24,0l-1.99,0.25
	c0,0-1.24,0.17-2.49,0c-1.24-0.17-2.24,0.17-3.65,0.17c-1.41,0-1.41,0-1.41,0s-1.99-0.17-2.24-0.33c-0.25-0.17-3.65,0.66-4.89,0.5
	c-1.24-0.17-2.07-0.58-2.65-1.82c-0.58-1.24-0.08-3.07-0.08-3.07s0.83-8.04,0.58-10.7c-0.25-2.65-1.58-7.63-1.08-9.7
	c0.5-2.07,4.15-9.45,3.98-10.45S328.16,184.24,323.13,179.82z"/>
<linearGradient id="SVGID_4_" gradientUnits="userSpaceOnUse" x1="359.0624" y1="217.4053" x2="333.1922" y2="176.2784">
	<stop  offset="0" style="stop-color:#EA7924"/>
	<stop  offset="1" style="stop-color:#EA7924;stop-opacity:0"/>
</linearGradient>
<path class="st6" d="M323.13,179.82c0,0-0.11,2.32-0.66,3.87c0,0,0.66,1.88-0.99,3.43c-1.66,1.55-6.52,4.09-6.52,4.09
	s-11.83,6.3-17.14,7.08c0,0-4.42,1.44-4.42,3.43c0,0,0.66,2.76,0.77,3.98c0.11,1.22,0.22,2.54,2.1,3.76
	c1.88,1.22,1.33,1.44,1.33,1.44s1.66,0.33,2.21,3.1c0,0,0.22,1.66-0.44,1.66c-0.66,0-0.66,0-0.66,0s-1.44,0.33-1.99-0.22
	c-0.55-0.55-2.54-1.66-3.43-1.66l0.11,1.27c0,0,0.58,1.33-0.58,1.16c-1.16-0.17-2.16-0.58-2.16-0.99s-0.12-1.53-0.41-1.87
	c-0.29-0.33-0.7-0.54-1-0.66s0.08,0.12-0.29-0.12c-0.37-0.25-0.7-0.83-0.79-2.07c-0.08-1.24,0.17-2.36-0.08-3.19
	c-0.25-0.83-1.78-3.07-2.2-4.19s-1.04-3.19-0.54-4.23c0.5-1.04,2.16-2.16,2.16-2.16l7.96-5.6c0,0,4.27-3.98,5.68-4.73
	c1.41-0.75,3.86-2.49,6.34-2.53c0,0,2.16-0.5,3.19-1.08c1.04-0.58,1.62-1.04,1.58-1.7c-0.04-0.66-3.44-10.74-3.69-12.27
	c-0.25-1.53-0.04-3.4-0.33-4.19c-0.29-0.79-2.16-4.64-2.82-5.97c-0.66-1.33-0.95-2.03-1.08-3.36c-0.12-1.33,0.66-5.02,0.95-5.85
	c0.29-0.83,1.78-5.76,2.03-7.42c0.25-1.66,0.17-4.27,0.17-4.27s-3.11-5.27-3.44-7.21l-0.29-0.91c0,0-0.62-1-0.17-1.45
	c0.46-0.46,0.66-0.79,0.66-0.79s1.2-3.03,4.1-6.84c2.9-3.81,4.39-5.06,4.39-5.06s0.12-1.7,0.91-3.69c0.79-1.99,4.93-7.05,4.93-7.05
	s6.72-6.22,7.5-7.05c0.79-0.83,2.65-3.11,3.4-4.52c0.75-1.41,3.48-4.35,6.51-4.81c3.03-0.46,5.68,0,5.68,0s2.2,0.41,2.69,1.33
	c0.5,0.91,0.5,1.29,0.5,1.29s0.33,0.91,0.87,1.24c0.54,0.33,1.58,1.12,2.11,1.62c0.54,0.5,0.75,0.87,1.04,1.08
	c0.29,0.21,0.54,0.04,0.58,0.79c0.04,0.75-0.08,0.91-0.79,1.45l0.04,0.25l1.33,1.91c0,0,0.79,0.83,0.17,1.66
	c0,0,1.33,1.45,1.58,2.86c0,0,0.37,1.16-0.25,1.37c0,0,0.58,0.21,0.29,0.7c-0.29,0.5-0.5,0.91-0.83,1.08
	c-0.33,0.17-2.03,3.28-5.1,2.61c-3.07-0.66-6.63-1.29-7.17-1.33c-0.54-0.04-2.03-0.41-2.07,0.83c-0.04,1.24,0.37,8.58,0.54,10.07
	c0.17,1.49,1.12,6.14-1.33,9.25l-0.33,0.17c0,0-0.25,2.45-1.74,5.06l-0.66,1.49l8.29,0.08c0,0,2.65-0.12,3.98,0.33
	c1.33,0.46,2.11-0.87,2.11-0.87s1.2-0.66,1.82-0.75s1.37-0.37,1.99,0.5c0.62,0.87,0.54,1,2.07,1.12s3.61,0.46,3.61,0.46
	s1.37,0.17,1.41,1.33c0,0,1.37,1.16,0.95,2.36c-0.41,1.2-0.83,1.04-0.83,1.04s0,1.29-0.25,1.62c-0.25,0.33-1.12,0.91-1.12,0.91
	s0.21,0.91-0.54,1.29c-0.75,0.37-1,0.41-1,0.41s0,1-0.7,1.04c-0.7,0.04-1.82,0.25-2.61-0.5c-0.79-0.75-0.95-0.83-0.95-0.83
	l-3.32-1.87l-0.46-0.17c0,0-1.58-0.17-2.32-0.62c0,0-1.37-0.54-4.27-0.08c-2.9,0.46-7.26,1.41-9.87,0.99c0,0-1.78,3.48-4.15,6.55
	c0,0-1.08,1.33-1.49,3.98c-0.41,2.65-0.17,2.32-0.17,2.32s1.87,4.02,3.03,5.18c1.16,1.16,2.82,2.99,4.81,7.13
	c1.99,4.15,2.32,9.12,2.32,9.12l1,2.49c0,0,1.66,2.16,1.66,3.65c0,1.49-1.99,7.3-1.99,7.3s-0.17,5.31-1.49,10.28
	c-1.33,4.98-3.32,9.62-2.98,11.77c0,0,0,2.49,0.33,3.15c0.33,0.66,4.15,0.66,6.96,2.16l1.66-0.17c0,0,0.99-0.58,2.16,1.08
	c-0.08-0.08,2.32,0.66,2.9,2.07c0,0,0.75-0.17,0.66,1.08c-0.25,0-0.75,0.41-0.75,0.41s-0.5,0.66-2.24,0l-1.99,0.25
	c0,0-1.24,0.17-2.49,0c-1.24-0.17-2.24,0.17-3.65,0.17c-1.41,0-1.41,0-1.41,0s-1.99-0.17-2.24-0.33c-0.25-0.17-3.65,0.66-4.89,0.5
	c-1.24-0.17-2.07-0.58-2.65-1.82c-0.58-1.24-0.08-3.07-0.08-3.07s0.83-8.04,0.58-10.7c-0.25-2.65-1.58-7.63-1.08-9.7
	c0.5-2.07,4.15-9.45,3.98-10.45S328.16,184.24,323.13,179.82z"/>
<path class="st4" d="M355.02,136.51c0,0,6.82-4.02,3.85,8.04c-2.97,12.06-10.84,57.52-4.2,59.8c6.64,2.27,5.59-11.71,4.72-22.9
	c-0.87-11.19-1.92-34.97-1.75-37.24c0.17-2.27,2.27-8.57,0.17-10.32c-2.1-1.75-2.1,4.2-2.1,4.2"/>
<path class="st4" d="M353.62,143.5c0,0-4.02,1.22-4.37,9.97s-4.9,16.44-4.9,16.44"/>
<path class="st4" d="M354.32,142.8c0,0-2.45,4.9-2.8,11.71c-0.35,6.82-1.75,14.69-1.75,14.69"/>
<line class="st3" x1="350.47" y1="167.45" x2="348.02" y2="181.62"/>
<line class="st3" x1="344.7" y1="168.33" x2="340.33" y2="181.97"/>
<path class="st0" d="M247.77,119.79l2.98-2.21c0,0,2.43,2.54,4.42,3.21c1.99,0.66,1.55,0.66,1.99,0.66c0.44,0,3.21,0,3.21,0
	s1.44,0.11,2.43-1.55l1.33-2.43c0,0,0.77,0.22,0.22-1.11c-0.55-1.33-0.77-1.66-0.77-1.66s0.33-1.11-0.22-1.55
	c-0.55-0.44-1.55-1.11-1.55-2.43c0,0,1.66-1,0.99-1.88c-0.66-0.88-2.21-1.99-2.21-1.99l-1.44-1.44c0,0-0.11-2.65-2.98-3.65
	c-2.87-0.99-5.09-0.55-6.08-0.44c-1,0.11-4.86,1.44-6.85,4.64c0,0-2.54,2.76-4.42,3.76c-1.88,1-7.19,4.31-7.85,5.2
	c-0.66,0.88-5.09,5.75-6.19,8.96c-1.11,3.21-4.42,12.94-5.42,16.69c-1,3.76-1.99,17.03-1.99,17.03s-2.1,5.31-1.55,8.84
	c0.55,3.54,4.64,6.74,4.64,6.74l8.84,14.7c0,0-0.22,2.87-2.1,3.65c-1.88,0.77-3.87,1.44-4.98,2.76c-1.11,1.33-5.2,8.96-5.2,8.96
	l-3.65,5.86c0,0-2.76,2.21-0.66,5.97c0,0,0.77,1.88,3.1,2.98c0,0,1.27,1.44,1.27,2.85c0,1.41,0.75,1.74,1.33,1.82
	c0.58,0.08,1-1.33,1-1.33s-0.83-1.82,0.66-0.91c1.49,0.91,3.07,2.4,3.81,2.24c0.75-0.17,0.95-0.79,1.82-0.33
	c0.87,0.46,1.12,0.58,1.62,0.58c0.5,0,1.16-0.54,1.16-0.54s0.54,0,0.29-0.87l-0.21-0.66c0,0-0.46-0.62-0.91-0.79
	c-0.46-0.17-3.48-1.66-3.48-1.66s-0.83-0.37-1.24-0.95c-0.41-0.58-1.12-1.74-1.62-1.99c-0.5-0.25-1.53-1.04-1.78-1.7
	c-0.25-0.66-0.75-1.41,0.62-2.69c1.37-1.29,8.91-9.45,8.91-9.45s3.44-3.44,4.23-5.31c0,0,1.12-1.78,1.95-1.99
	c0.83-0.21,1.74-1.12,1.99-1.95c0.25-0.83,0.83-2.86,0.75-3.19c-0.08-0.33,0.7-1.08,0.7-1.08l0.5-1.08c0,0,0.41-0.17,0.66,0.83
	c0.25,1,0.66,3.15,0.46,3.73c-0.21,0.58-1,2.82-0.75,4.73c0.25,1.91,0.95,3.44,0.95,4.39c0,0.95-0.08,2.45,0.75,5.1
	c0.83,2.65,1.29,7.63,1.29,9.83c0,0-0.21,0.87,0,1.62c0.21,0.75,0.46,1.87,0.46,1.87s-0.04,1.66,0.79,2.24
	c0.83,0.58,2.07,1.29,2.82,1.24c0.75-0.04,0.54-0.04,0.75-0.04s0.21,0,0.21,0l4.06-0.17c0,0,0.79-0.29,2.36,0.41
	c0,0,0.5,0.12,1.91,0.12s2.28-0.17,2.28-0.17s1.7,0.5,2.53,0c0,0,0.79-0.08,1.29-0.62c0,0,0.91,0.04,1.2-0.12
	c0.29-0.17-0.7-1.2-0.7-1.2s0.25-0.79-0.12-0.99c-0.37-0.21-0.62-0.54-0.62-0.54s-0.12-0.62-1.08-0.95
	c-0.95-0.33-1.87-0.21-1.87-0.21s-0.54-0.87-1.12-0.75c-0.58,0.12-0.75,0.25-1.53,0.21c-0.79-0.04-1.49-0.7-1.99-0.75
	c-0.5-0.04-1.41,0-1.41,0s-0.87,0.33-1.78-0.58s-1.29-1.53-1.41-2.69c-0.12-1.16,0.37-10.24,0.37-10.24s0.29-6.51-0.46-8.62
	c0,0-0.33-1.2,0-2.2c0.33-1,0.54-0.95,0.54-1.78c0-0.83-0.08-1.53-0.08-1.53s0.58-1.7,0.37-3.28c-0.21-1.58-1.45-3.86-1.45-3.86
	l-3.48-4.85c0,0-1.37-2.45-2.49-3.65c-1.12-1.2-4.15-3.77-4.15-3.77s-2.03-1.78-2.53-2.74c0,0-1.41-3.19-1.37-4.44
	c0,0,1.58-2.69,2.03-3.4c0.46-0.7,3.15-4.6,3.28-5.6c0,0,1.16,3.44,2.57,5.85c1.41,2.4,7.55,8.62,7.55,8.62s0.95,1.2,1.16,3.36
	s0.7,2.45,0.7,2.45s-0.04,2.82,0.08,3.57c0.12,0.75-0.04,0.95,0,1.37c0.04,0.41-0.54,2.16-0.04,2.74l0.33,0.25
	c0,0-0.7,2.24,0.12,2.45c0,0,0.33,0.83,1.53-0.04c0,0,1.41-0.83,1.99-2.11c0.58-1.29,0.75-1.29,0.75-1.29l-0.08-0.95
	c0,0,0.95-1.24,0.91-2.86c0,0,0.54,0.58,0.87,0.37s0.46-1.7,0.21-2.57c-0.25-0.87-1.08-3.61-1.08-3.61s-0.21-0.83-0.41-0.83
	c-0.21,0-0.58-0.54-0.79-0.83c-0.21-0.29-6.01-11.86-6.59-13.06c-0.58-1.2-0.95-2.74-1.95-4.27c-1-1.53-3.15-3.32-3.77-5.56
	c0,0,1-3.94,1.12-4.64c0.12-0.7,0.46-3.57,0.46-3.57s1.33-0.25,1.74-1.58c0.41-1.33,0.04-3.44,0.04-3.44s0.75-0.41,0.66-2.69
	c-0.08-2.28-0.54-5.39-0.54-6.22c0-0.83,0.66-0.7,0.54-1.7c-0.12-0.99-0.58-2.45-0.58-2.45S247.52,119.94,247.77,119.79z"/>
<linearGradient id="SVGID_5_" gradientUnits="userSpaceOnUse" x1="284.7046" y1="144.5271" x2="272.267" y2="151.9897">
	<stop  offset="0" style="stop-color:#EA7924"/>
	<stop  offset="1" style="stop-color:#EA7924;stop-opacity:0"/>
</linearGradient>
<path class="st7" d="M247.77,119.79l2.98-2.21c0,0,2.43,2.54,4.42,3.21c1.99,0.66,1.55,0.66,1.99,0.66c0.44,0,3.21,0,3.21,0
	s1.44,0.11,2.43-1.55l1.33-2.43c0,0,0.77,0.22,0.22-1.11c-0.55-1.33-0.77-1.66-0.77-1.66s0.33-1.11-0.22-1.55
	c-0.55-0.44-1.55-1.11-1.55-2.43c0,0,1.66-1,0.99-1.88c-0.66-0.88-2.21-1.99-2.21-1.99l-1.44-1.44c0,0-0.11-2.65-2.98-3.65
	c-2.87-0.99-5.09-0.55-6.08-0.44c-1,0.11-4.86,1.44-6.85,4.64c0,0-2.54,2.76-4.42,3.76c-1.88,1-7.19,4.31-7.85,5.2
	c-0.66,0.88-5.09,5.75-6.19,8.96c-1.11,3.21-4.42,12.94-5.42,16.69c-1,3.76-1.99,17.03-1.99,17.03s-2.1,5.31-1.55,8.84
	c0.55,3.54,4.64,6.74,4.64,6.74l8.84,14.7c0,0-0.22,2.87-2.1,3.65c-1.88,0.77-3.87,1.44-4.98,2.76c-1.11,1.33-5.2,8.96-5.2,8.96
	l-3.65,5.86c0,0-2.76,2.21-0.66,5.97c0,0,0.77,1.88,3.1,2.98c0,0,1.27,1.44,1.27,2.85c0,1.41,0.75,1.74,1.33,1.82
	c0.58,0.08,1-1.33,1-1.33s-0.83-1.82,0.66-0.91c1.49,0.91,3.07,2.4,3.81,2.24c0.75-0.17,0.95-0.79,1.82-0.33
	c0.87,0.46,1.12,0.58,1.62,0.58c0.5,0,1.16-0.54,1.16-0.54s0.54,0,0.29-0.87l-0.21-0.66c0,0-0.46-0.62-0.91-0.79
	c-0.46-0.17-3.48-1.66-3.48-1.66s-0.83-0.37-1.24-0.95c-0.41-0.58-1.12-1.74-1.62-1.99c-0.5-0.25-1.53-1.04-1.78-1.7
	c-0.25-0.66-0.75-1.41,0.62-2.69c1.37-1.29,8.91-9.45,8.91-9.45s3.44-3.44,4.23-5.31c0,0,1.12-1.78,1.95-1.99
	c0.83-0.21,1.74-1.12,1.99-1.95c0.25-0.83,0.83-2.86,0.75-3.19c-0.08-0.33,0.7-1.08,0.7-1.08l0.5-1.08c0,0,0.41-0.17,0.66,0.83
	c0.25,1,0.66,3.15,0.46,3.73c-0.21,0.58-1,2.82-0.75,4.73c0.25,1.91,0.95,3.44,0.95,4.39c0,0.95-0.08,2.45,0.75,5.1
	c0.83,2.65,1.29,7.63,1.29,9.83c0,0-0.21,0.87,0,1.62c0.21,0.75,0.46,1.87,0.46,1.87s-0.04,1.66,0.79,2.24
	c0.83,0.58,2.07,1.29,2.82,1.24c0.75-0.04,0.54-0.04,0.75-0.04s0.21,0,0.21,0l4.06-0.17c0,0,0.79-0.29,2.36,0.41
	c0,0,0.5,0.12,1.91,0.12s2.28-0.17,2.28-0.17s1.7,0.5,2.53,0c0,0,0.79-0.08,1.29-0.62c0,0,0.91,0.04,1.2-0.12
	c0.29-0.17-0.7-1.2-0.7-1.2s0.25-0.79-0.12-0.99c-0.37-0.21-0.62-0.54-0.62-0.54s-0.12-0.62-1.08-0.95
	c-0.95-0.33-1.87-0.21-1.87-0.21s-0.54-0.87-1.12-0.75c-0.58,0.12-0.75,0.25-1.53,0.21c-0.79-0.04-1.49-0.7-1.99-0.75
	c-0.5-0.04-1.41,0-1.41,0s-0.87,0.33-1.78-0.58s-1.29-1.53-1.41-2.69c-0.12-1.16,0.37-10.24,0.37-10.24s0.29-6.51-0.46-8.62
	c0,0-0.33-1.2,0-2.2c0.33-1,0.54-0.95,0.54-1.78c0-0.83-0.08-1.53-0.08-1.53s0.58-1.7,0.37-3.28c-0.21-1.58-1.45-3.86-1.45-3.86
	l-3.48-4.85c0,0-1.37-2.45-2.49-3.65c-1.12-1.2-4.15-3.77-4.15-3.77s-2.03-1.78-2.53-2.74c0,0-1.41-3.19-1.37-4.44
	c0,0,1.58-2.69,2.03-3.4c0.46-0.7,3.15-4.6,3.28-5.6c0,0,1.16,3.44,2.57,5.85c1.41,2.4,7.55,8.62,7.55,8.62s0.95,1.2,1.16,3.36
	s0.7,2.45,0.7,2.45s-0.04,2.82,0.08,3.57c0.12,0.75-0.04,0.95,0,1.37c0.04,0.41-0.54,2.16-0.04,2.74l0.33,0.25
	c0,0-0.7,2.24,0.12,2.45c0,0,0.33,0.83,1.53-0.04c0,0,1.41-0.83,1.99-2.11c0.58-1.29,0.75-1.29,0.75-1.29l-0.08-0.95
	c0,0,0.95-1.24,0.91-2.86c0,0,0.54,0.58,0.87,0.37s0.46-1.7,0.21-2.57c-0.25-0.87-1.08-3.61-1.08-3.61s-0.21-0.83-0.41-0.83
	c-0.21,0-0.58-0.54-0.79-0.83c-0.21-0.29-6.01-11.86-6.59-13.06c-0.58-1.2-0.95-2.74-1.95-4.27c-1-1.53-3.15-3.32-3.77-5.56
	c0,0,1-3.94,1.12-4.64c0.12-0.7,0.46-3.57,0.46-3.57s1.33-0.25,1.74-1.58c0.41-1.33,0.04-3.44,0.04-3.44s0.75-0.41,0.66-2.69
	c-0.08-2.28-0.54-5.39-0.54-6.22c0-0.83,0.66-0.7,0.54-1.7c-0.12-0.99-0.58-2.45-0.58-2.45S247.52,119.94,247.77,119.79z"/>
<linearGradient id="SVGID_6_" gradientUnits="userSpaceOnUse" x1="211.9379" y1="162.09" x2="264.5547" y2="162.09">
	<stop  offset="0" style="stop-color:#EA7924"/>
	<stop  offset="1" style="stop-color:#EA7924;stop-opacity:0"/>
</linearGradient>
<path class="st8" d="M247.77,119.79l2.98-2.21c0,0,2.43,2.54,4.42,3.21c1.99,0.66,1.55,0.66,1.99,0.66c0.44,0,3.21,0,3.21,0
	s1.44,0.11,2.43-1.55l1.33-2.43c0,0,0.77,0.22,0.22-1.11c-0.55-1.33-0.77-1.66-0.77-1.66s0.33-1.11-0.22-1.55
	c-0.55-0.44-1.55-1.11-1.55-2.43c0,0,1.66-1,0.99-1.88c-0.66-0.88-2.21-1.99-2.21-1.99l-1.44-1.44c0,0-0.11-2.65-2.98-3.65
	c-2.87-0.99-5.09-0.55-6.08-0.44c-1,0.11-4.86,1.44-6.85,4.64c0,0-2.54,2.76-4.42,3.76c-1.88,1-7.19,4.31-7.85,5.2
	c-0.66,0.88-5.09,5.75-6.19,8.96c-1.11,3.21-4.42,12.94-5.42,16.69c-1,3.76-1.99,17.03-1.99,17.03s-2.1,5.31-1.55,8.84
	c0.55,3.54,4.64,6.74,4.64,6.74l8.84,14.7c0,0-0.22,2.87-2.1,3.65c-1.88,0.77-3.87,1.44-4.98,2.76c-1.11,1.33-5.2,8.96-5.2,8.96
	l-3.65,5.86c0,0-2.76,2.21-0.66,5.97c0,0,0.77,1.88,3.1,2.98c0,0,1.27,1.44,1.27,2.85c0,1.41,0.75,1.74,1.33,1.82
	c0.58,0.08,1-1.33,1-1.33s-0.83-1.82,0.66-0.91c1.49,0.91,3.07,2.4,3.81,2.24c0.75-0.17,0.95-0.79,1.82-0.33
	c0.87,0.46,1.12,0.58,1.62,0.58c0.5,0,1.16-0.54,1.16-0.54s0.54,0,0.29-0.87l-0.21-0.66c0,0-0.46-0.62-0.91-0.79
	c-0.46-0.17-3.48-1.66-3.48-1.66s-0.83-0.37-1.24-0.95c-0.41-0.58-1.12-1.74-1.62-1.99c-0.5-0.25-1.53-1.04-1.78-1.7
	c-0.25-0.66-0.75-1.41,0.62-2.69c1.37-1.29,8.91-9.45,8.91-9.45s3.44-3.44,4.23-5.31c0,0,1.12-1.78,1.95-1.99
	c0.83-0.21,1.74-1.12,1.99-1.95c0.25-0.83,0.83-2.86,0.75-3.19c-0.08-0.33,0.7-1.08,0.7-1.08l0.5-1.08c0,0,0.41-0.17,0.66,0.83
	c0.25,1,0.66,3.15,0.46,3.73c-0.21,0.58-1,2.82-0.75,4.73c0.25,1.91,0.95,3.44,0.95,4.39c0,0.95-0.08,2.45,0.75,5.1
	c0.83,2.65,1.29,7.63,1.29,9.83c0,0-0.21,0.87,0,1.62c0.21,0.75,0.46,1.87,0.46,1.87s-0.04,1.66,0.79,2.24
	c0.83,0.58,2.07,1.29,2.82,1.24c0.75-0.04,0.54-0.04,0.75-0.04s0.21,0,0.21,0l4.06-0.17c0,0,0.79-0.29,2.36,0.41
	c0,0,0.5,0.12,1.91,0.12s2.28-0.17,2.28-0.17s1.7,0.5,2.53,0c0,0,0.79-0.08,1.29-0.62c0,0,0.91,0.04,1.2-0.12
	c0.29-0.17-0.7-1.2-0.7-1.2s0.25-0.79-0.12-0.99c-0.37-0.21-0.62-0.54-0.62-0.54s-0.12-0.62-1.08-0.95
	c-0.95-0.33-1.87-0.21-1.87-0.21s-0.54-0.87-1.12-0.75c-0.58,0.12-0.75,0.25-1.53,0.21c-0.79-0.04-1.49-0.7-1.99-0.75
	c-0.5-0.04-1.41,0-1.41,0s-0.87,0.33-1.78-0.58s-1.29-1.53-1.41-2.69c-0.12-1.16,0.37-10.24,0.37-10.24s0.29-6.51-0.46-8.62
	c0,0-0.33-1.2,0-2.2c0.33-1,0.54-0.95,0.54-1.78c0-0.83-0.08-1.53-0.08-1.53s0.58-1.7,0.37-3.28c-0.21-1.58-1.45-3.86-1.45-3.86
	l-3.48-4.85c0,0-1.37-2.45-2.49-3.65c-1.12-1.2-4.15-3.77-4.15-3.77s-2.03-1.78-2.53-2.74c0,0-1.41-3.19-1.37-4.44
	c0,0,1.58-2.69,2.03-3.4c0.46-0.7,3.15-4.6,3.28-5.6c0,0,1.16,3.44,2.57,5.85c1.41,2.4,7.55,8.62,7.55,8.62s0.95,1.2,1.16,3.36
	s0.7,2.45,0.7,2.45s-0.04,2.82,0.08,3.57c0.12,0.75-0.04,0.95,0,1.37c0.04,0.41-0.54,2.16-0.04,2.74l0.33,0.25
	c0,0-0.7,2.24,0.12,2.45c0,0,0.33,0.83,1.53-0.04c0,0,1.41-0.83,1.99-2.11c0.58-1.29,0.75-1.29,0.75-1.29l-0.08-0.95
	c0,0,0.95-1.24,0.91-2.86c0,0,0.54,0.58,0.87,0.37s0.46-1.7,0.21-2.57c-0.25-0.87-1.08-3.61-1.08-3.61s-0.21-0.83-0.41-0.83
	c-0.21,0-0.58-0.54-0.79-0.83c-0.21-0.29-6.01-11.86-6.59-13.06c-0.58-1.2-0.95-2.74-1.95-4.27c-1-1.53-3.15-3.32-3.77-5.56
	c0,0,1-3.94,1.12-4.64c0.12-0.7,0.46-3.57,0.46-3.57s1.33-0.25,1.74-1.58c0.41-1.33,0.04-3.44,0.04-3.44s0.75-0.41,0.66-2.69
	c-0.08-2.28-0.54-5.39-0.54-6.22c0-0.83,0.66-0.7,0.54-1.7c-0.12-0.99-0.58-2.45-0.58-2.45S247.52,119.94,247.77,119.79z"/>
<linearGradient id="SVGID_7_" gradientUnits="userSpaceOnUse" x1="235.0126" y1="188.9765" x2="226.6103" y2="68.6914">
	<stop  offset="0" style="stop-color:#EA7924"/>
	<stop  offset="1" style="stop-color:#EA7924;stop-opacity:0"/>
</linearGradient>
<path class="st9" d="M238.93,113.27c0,0-4.98,0-7.08,1.55c-2.1,1.55-5.2,10.5-6.19,12.82c-1,2.32-2.32,9.4-2.32,10.83
	c0,1.44-0.77,3.54-2.21,5.42s1,7.85,1.88,10.72c0.88,2.87,2.76,8.07,3.87,10.61c1.11,2.54,5.86,10.94,5.86,10.94
	s-0.88,0.66-0.77,1.88c0.11,1.22-0.11,3.87-0.44,5.42c-0.33,1.55-1.22,2.54,0.11,3.76c0,0,1.22,1.99,1.77,1.88
	c0.55-0.11,1.11,1.44,2.54,1c0,0,0.55,0.22,1.22-0.66c0.66-0.88,0.88-2.32,0.88-2.32s1.55-0.33,1.77-1.44
	c0.22-1.11-0.11-3.21-0.11-3.21s0.77-2.32,0.22-4.64l-1.11-1.55c0,0-4.53-12.38-4.86-19.79c0,0-0.11-1.55-1.99-4.75
	c-1.88-3.21-1.66-6.74-1.22-7.74c0.44-1,3.1-4.2,3.32-7.85c0.22-3.65,0.55-6.3,1.44-7.74c0.88-1.44,2.87-1,4.2-4.53
	S242.91,115.59,238.93,113.27z"/>
<path class="st4" d="M239.49,184.24c0,0,5.94,7.87,5.07,22.38"/>
<path class="st4" d="M246.83,206.09c-0.35-16.44-7.13-23.62-7.13-23.62"/>
<path class="st4" d="M231.27,183.54c0,0-17.13,2.62-23.43,18.36c-6.29,15.74-11.71,34.62-20.63,32.17
	c-8.92-2.45,13.59-34.21,17.66-39.51c5.77-7.52,22.55-12.06,26.93-12.41"/>
<line class="st3" x1="244.03" y1="219.56" x2="244.91" y2="206.09"/>
<line class="st3" x1="248.75" y1="219.03" x2="247" y2="205.05"/>
<line class="st3" x1="167.09" y1="213.19" x2="171.89" y2="210.65"/>
<line class="st3" x1="166.64" y1="214.85" x2="173.99" y2="215.02"/>
<path class="st0" d="M116.35,208.17c0,0-2.82,1.74-1.82,3.32c0,0,1.08,0.83,1.24,1.16c0.17,0.33,1,2.57,1.74,3.32s1.33,1.16,2.9,1
	l2.32,1.91c0,0,0.91,1.08-0.08,2.07c0,0-0.08,0.75-1.08,0.75c-1,0-0.91-1-0.91-1s-1.33-0.5-2.24,0.17
	c-0.91,0.66-2.24-0.58-2.24-0.58l-0.58-0.66l-1.49-0.83l-1.24,0.33c0,0,0.75,1.49-0.33,2.24c0,0-0.58,0.33-1.16-0.33
	c-0.58-0.66-0.91-2.98-0.91-2.98l0.25-1l-2.16-3.48l-1.49-0.91l-0.99-2.32c0,0-0.58-0.91,0.25-1.41c0,0,0.41-1.24,2.49-3.48
	c2.07-2.24,4.15-2.98,4.15-2.98s3.81-4.98,5.8-5.97c1.99-1,6.3-2.32,6.3-2.32s3.07-1.74,1-4.23c-2.07-2.49-5.39-7.38-5.39-7.38
	s-2.9-4.89-2.65-6.14c0.25-1.24,3.15-8.79,4.81-10.95c1.66-2.16,15.26-17.25,23.96-21.72c0,0,6.8-3.07,8.46-3.07
	c1.66,0,2.65,0.08,3.9-0.58c1.24-0.66,5.47-3.32,9.37-3.65c3.9-0.33,6.38,1.08,6.96,1.74c0.58,0.66,0.75,1.08,1.66,1.91
	c0.91,0.83,2.82,2.57,1.58,3.4c0,0-1.12,0.58-0.58,1.66c0.54,1.08,1,1.37,1,1.37s0.79,0.54,0.75,1.49c0,0,1.16,1.16,1.08,1.62
	c0,0,0.29-0.08,0.37,0.58c0.08,0.66-0.46,1.33-0.46,1.33l0.12,0.58c0,0-1.04,0.75-1.29,1.08c-0.25,0.33-0.21,0.91-0.29,1.2
	c-0.08,0.29-1.12,0.79-1.24,0.79c-0.12,0-0.21-0.25-0.54-0.29c-0.33-0.04-0.5,0.04-0.7,0.12c-0.21,0.08,0.04,0.08-0.46,0.08
	s-0.58,0-0.83,0c-0.25,0-0.21,0.08-0.41-0.04c-0.21-0.12-7.34-1.2-8.21-2.45c0,0-2.2,2.65-2.61,4.35c-0.41,1.7-1.7,4.81-1.7,4.81
	l-0.58,1.99c0,0,0.12,6.55-1.08,9.99c0,0-0.17,3.57,0,4.39c0.17,0.83,2.16,5.22,2.57,6.8c0.41,1.58,2.69,13.97,2.69,13.97
	s1.24,6.67,1.16,10.57c0,0-0.5,2.69-0.37,3.69c0.12,0.99-1,3.73-1,3.73s-0.29,1.53-2.32,2.11c0,0-1.33,0.91-3.07-0.25
	c-1.74-1.16-2.07-1.62-2.2-3.03c0,0-1.16-0.75-0.91-1.24c0.25-0.5,0.87-0.83,0.87-0.83s0.37-0.62,1.16-0.58l1.04-1.82
	c0,0-0.46-2.65,0.75-4.31l-4.73-10.45c0,0-2.16-5.51-2.45-7.59c-0.29-2.07-2.9-7.46-2.9-7.46s0.5,2.99,0.25,4.64
	c-0.25,1.66-2.2,9.95-2.2,9.95s-1.45,8.33-1.45,8.46c0,0.12-0.33,0.91,0.04,2.57c0.37,1.66-0.21,4.35-1.49,5.97
	c0,0-0.29,0.54-0.75,0.54c0,0-0.21,1.08,2.53,1.12c2.74,0.04,2.65,0.41,2.74,0.54c0.08,0.12,1.66-0.21,2.28,0.46
	c0,0,1.29,0,1.99,0.79c0,0,1.37-0.12,1.04,1.66c0,0,0.79,0.29,0.41,1.04c-0.37,0.75-2.11,0.7-2.11,0.7s0.21,0.7-1.2,0.7
	c-1.41,0-2.32-0.21-2.32-0.21s-0.46,0.25-1.24,0.33c-0.79,0.08-4.93-0.33-4.93-0.33s-1.04-0.41-1.49-0.46
	c-0.46-0.04-1.82,0.33-2.69,0.12c-0.87-0.21-2.07-1.2-2.07-1.2s-0.83-0.66-0.37-1.91c0.46-1.24,0.41-2.24,0.41-2.57
	c0-0.33-2.07-10.49-2.07-13.18c0-2.69,2.49-9.2,2.49-9.2s0.54-0.66-0.21-0.91c-0.75-0.25-4.64-1.33-4.64-1.33l0.29,4.52
	c0,0,0.21,1.87-0.7,2.78s-2.2,1.08-2.2,1.08s-8.06,6.27-12.29,8.01c-0.32,0.13-0.62,0.3-0.9,0.49
	C117.77,207.09,116.61,207.88,116.35,208.17z M136.99,178.49l6.97,5.47c0,0,0.66-8.13,2.16-10.28
	C146.12,173.68,141.97,177.82,136.99,178.49z"/>
<linearGradient id="SVGID_8_" gradientUnits="userSpaceOnUse" x1="127.1064" y1="171.6449" x2="147.6699" y2="216.9176">
	<stop  offset="0" style="stop-color:#EA7924"/>
	<stop  offset="1" style="stop-color:#EA7924;stop-opacity:0"/>
</linearGradient>
<path class="st10" d="M134.26,189.76c0,0,3.9,1.08,4.64,1.33c0.75,0.25,0.21,0.91,0.21,0.91s-2.49,6.51-2.49,9.2
	c0,2.69,2.07,12.85,2.07,13.18c0,0.33,0.04,1.33-0.41,2.57c-0.46,1.24,0.37,1.91,0.37,1.91s1.2,1,2.07,1.2
	c0.87,0.21,2.24-0.17,2.69-0.12c0.46,0.04,1.49,0.46,1.49,0.46s4.15,0.41,4.93,0.33c0.79-0.08,1.24-0.33,1.24-0.33
	s0.91,0.21,2.32,0.21c1.41,0,1.2-0.7,1.2-0.7s1.74,0.04,2.11-0.7c0.37-0.75-0.41-1.04-0.41-1.04c0.33-1.78-1.04-1.66-1.04-1.66
	c-0.7-0.79-1.99-0.79-1.99-0.79c-0.62-0.66-2.2-0.33-2.28-0.46c-0.08-0.12,0-0.5-2.74-0.54c-2.74-0.04-2.53-1.12-2.53-1.12
	s-1.29-0.35-0.95-4.33c0.33-3.98,1.77-7.96,1.22-15.81c0,0,0.44-4.31,0.33-5.31c-0.11-1-0.55-1.88-0.55-1.88s-3.21-4.09-5.09-5.64
	c-1.88-1.55-12.71-8.18-14.26-8.51s-7.46-2.65-8.35,4.53c0,0,0.83,6.85,4.92,8.18C127.1,186.17,134.26,189.76,134.26,189.76z"/>
<linearGradient id="SVGID_9_" gradientUnits="userSpaceOnUse" x1="155.0993" y1="139.8969" x2="163.0593" y2="224.4722">
	<stop  offset="0" style="stop-color:#EA7924"/>
	<stop  offset="1" style="stop-color:#EA7924;stop-opacity:0"/>
</linearGradient>
<path class="st11" d="M162.7,161.78l-0.58,1.99c0,0,0.12,6.55-1.08,9.99c0,0-0.17,3.57,0,4.39c0.17,0.83,2.16,5.22,2.57,6.8
	c0.41,1.58,2.69,13.97,2.69,13.97s1.24,6.67,1.16,10.57c0,0-0.5,2.69-0.37,3.69c0.12,0.99-1,3.73-1,3.73s-0.29,1.53-2.32,2.11
	c0,0-1.33,0.91-3.07-0.25c-1.74-1.16-2.07-1.62-2.2-3.03c0,0-1.16-0.75-0.91-1.24c0.25-0.5,0.87-0.83,0.87-0.83s0.37-0.62,1.16-0.58
	l1.04-1.82c0,0-0.46-2.65,0.75-4.31l-4.73-10.45c0,0-2.16-5.51-2.45-7.59c-0.29-2.07-2.9-7.46-2.9-7.46s-0.58-0.28,0.3-3.37
	c0.88-3.1-0.33-11.06-0.33-11.39c0-0.33-0.66-4.75,1.22-7.74c0,0-0.44-4.09,0.66-5.75c1.11-1.66,3.98-5.31,7.08-3.98
	s4.64,6.52,4.09,8.51C163.8,159.75,162.7,161.78,162.7,161.78z"/>
<linearGradient id="SVGID_10_" gradientUnits="userSpaceOnUse" x1="180.0414" y1="143.3416" x2="164.7847" y2="148.4272">
	<stop  offset="0" style="stop-color:#EA7924"/>
	<stop  offset="1" style="stop-color:#EA7924;stop-opacity:0"/>
</linearGradient>
<path class="st12" d="M168.5,136.45c3.9-0.33,6.38,1.08,6.96,1.74c0.58,0.66,0.75,1.08,1.66,1.91c0.91,0.83,2.82,2.57,1.58,3.4
	c0,0-1.12,0.58-0.58,1.66c0.54,1.08,1,1.37,1,1.37s0.79,0.54,0.75,1.49c0,0,1.16,1.16,1.08,1.62c0,0,0.29-0.08,0.37,0.58
	c0.08,0.66-0.46,1.33-0.46,1.33l0.12,0.58c0,0-1.04,0.75-1.29,1.08c-0.25,0.33-0.21,0.91-0.29,1.2c-0.08,0.29-1.12,0.79-1.24,0.79
	c-0.12,0-0.21-0.25-0.54-0.29c-0.33-0.04-0.5,0.04-0.7,0.12c-0.21,0.08,0.04,0.08-0.46,0.08s-0.58,0-0.83,0
	c-0.25,0-0.21,0.08-0.41-0.04c-0.21-0.12-7.34-1.2-8.21-2.45c0,0-2.21-1.6-2.76-3.26c0,0-2.54-3.98-2.65-6.41
	c-0.11-2.43,0.22-4.53,2.32-5.42C166.02,136.64,168.5,136.45,168.5,136.45z"/>
<path class="st4" d="M162.1,214.67c0,0-8.57-2.1-19.41,8.57c-9,8.86-64.52-3.15-67.66-3.15c-3.15,0-38.29-14.16-40.39,3.15
	c-2.1,17.31,83.92,8.92,96.51,7.87c12.59-1.05,17.25-8.93,22.26-10.5C158.43,219.04,162.1,214.67,162.1,214.67z"/>
<line class="st3" x1="162.62" y1="214.32" x2="157.6" y2="214.51"/>
<line class="st3" x1="159.12" y1="217.82" x2="162.27" y2="215.55"/>
<linearGradient id="SVGID_11_" gradientUnits="userSpaceOnUse" x1="352.8593" y1="159.4474" x2="304.1041" y2="93.7771">
	<stop  offset="0" style="stop-color:#EA7924"/>
	<stop  offset="1" style="stop-color:#EA7924;stop-opacity:0"/>
</linearGradient>
<path class="st13" d="M331.16,142.94c2.61,0.41,6.97-0.54,9.87-0.99c2.9-0.46,4.27,0.08,4.27,0.08c0.75,0.46,2.32,0.62,2.32,0.62
	l0.46,0.17l3.32,1.87c0,0,0.17,0.08,0.95,0.83c0.79,0.75,1.91,0.54,2.61,0.5c0.7-0.04,0.7-1.04,0.7-1.04s0.25-0.04,1-0.41
	c0.75-0.37,0.54-1.29,0.54-1.29s0.87-0.58,1.12-0.91c0.25-0.33,0.25-1.62,0.25-1.62s0.41,0.17,0.83-1.04
	c0.41-1.2-0.95-2.36-0.95-2.36c-0.04-1.16-1.41-1.33-1.41-1.33s-2.07-0.33-3.61-0.46s-1.45-0.25-2.07-1.12
	c-0.62-0.87-1.37-0.58-1.99-0.5s-1.82,0.75-1.82,0.75s-0.79,1.33-2.11,0.87c-1.33-0.46-3.98-0.33-3.98-0.33s-6.09,0.12-8.66-0.7
	s-5.31-1.58-7.71-1.58c0,0-1.41-0.33-0.66-2.07c0.75-1.74,2.9-7.79,2.9-9.78c0-1.99,0.08-1.66,0.08-1.66s1.82-2.65,1.82-3.65
	c0-1,1.33-7.96-1.91-9.62c-3.23-1.66-6.72-0.91-8.29,1.08c-1.58,1.99-2.74,8.54-3.32,11.69c-0.58,3.15-0.75,16.67-0.75,16.67
	s-0.5,2.57,0.75,3.73c1.24,1.16,1.91,0.33,4.15,1.33S326.39,142.89,331.16,142.94z"/>
<linearGradient id="SVGID_12_" gradientUnits="userSpaceOnUse" x1="430.5178" y1="126.4468" x2="413.6027" y2="63.4299">
	<stop  offset="0" style="stop-color:#EA7924"/>
	<stop  offset="1" style="stop-color:#EA7924;stop-opacity:0"/>
</linearGradient>
<path class="st14" d="M432.67,126.83c4.83,2.02,9.56,4.01,9.78,3.92c0.42-0.18,2.55,0.07,3.02,0.41c0.47,0.34,3.99,1.69,4.55,1.89
	c0.57,0.2,1,1.04,1,1.04s2.03,0.75,2.65,1.67c0.62,0.91,0.71,1.75,0.53,2.44c-0.17,0.69-1.12,0.99-1.12,0.99s0.26,0.43-0.34,1.02
	c-0.59,0.59-1.09,1.03-1.09,1.03s-0.23,0.24-0.61,1.02c-0.38,0.78-1.92,0.49-1.92,0.49s-1.67,1.27-2.76,0.57
	c-1.09-0.7-3.62-2.39-5.37-2.87c-1.75-0.48-4.16-4.2-4.16-4.2s-3.28-0.48-6.55-1.02c0,0-17.04-3.84-18.59-6.49
	c0,0-1.11-0.66-1.77-1.77c-0.66-1.11-1.11-4.2-1.11-4.2s0.33-3.32-0.22-4.53c-0.55-1.22-2.43-4.42-2.54-7.52
	c-0.11-3.1-0.55-6.63,0.11-11.94c0,0-0.77-2.76-0.33-5.86c0.44-3.1,3.21-10.5,6.74-10.5s7.52,0.66,8.4,5.97
	c0.58,3.47-0.55,6.42-1.39,8.05c-0.5,0.96-0.7,2.03-0.58,3.11c0.28,2.5,0.61,7.24-0.23,11.4c-1.22,5.97-1.66,8.4-1.11,9.51
	c0.55,1.11,0.55,1.11,0.55,1.11S430.75,126.03,432.67,126.83z"/>
<g>
	<path class="st4" d="M526.15,219.83c-12.42-3.2-21.53-17.76-16.38-33.39c5.14-15.63,46.63-76.36,48.07-94.49
		c0,0,2.49-6.32-0.06-7.03c-1.53-0.42-1.35,4.32-1.35,4.32"/>
	<path class="st0" d="M529.46,85.89c1.44-0.55,5.19,0.43,5.19,0.43c2.69,0.67,16.82,1.11,17.09,0.85c0.26-0.26,1.95-0.69,2.4-0.56
		c0.45,0.12,3.5,0.12,3.99,0.1c0.48-0.02,1.06,0.5,1.06,0.5s1.75-0.02,2.48,0.49c0.74,0.51,1.04,1.12,1.11,1.69
		c0.07,0.57-0.56,1.07-0.56,1.07s0.32,0.25,0.04,0.87c-0.28,0.62-0.52,1.1-0.52,1.1s-0.1,0.25-0.17,0.95
		c-0.06,0.7-1.31,0.93-1.31,0.93s-0.89,1.44-1.92,1.23c-1.02-0.21-3.42-0.75-4.88-0.6c-1.46,0.15-4.36-1.96-4.36-1.96
		s-5.98,1.34-8.92,1.84c-2.94,0.5-11.55-0.86-11.55-0.86s-2.27-0.39-2.82-0.36c-0.55,0.03-1.41,0.02-1.83-0.93
		c-0.42-0.95-0.38-2.24-0.49-3.09c-0.11-0.85-0.57-2.35-0.65-2.72c-0.08-0.36-0.36-2.92-0.36-2.92s-1.15-2.93-1.22-4.03
		c-0.06-1.1-0.17-1.89-0.17-1.89s-0.92-2.15-1.02-2.75c-0.1-0.61,0.18-3.13,0.23-3.38c0.05-0.25,0.12-3.07,0.12-3.07
		s1.58-3.34,4.29-3.01c2.71,0.33,5.8,1.92,5.71,5.48c-0.04,1.3-0.16,2.06-0.29,2.5c-0.15,0.48-0.13,1,0.09,1.45
		c0.3,0.64,0.89,1.39,0.95,2.43c0.11,1.89-0.13,4.05-1.1,5.14C530.08,82.79,529.41,85.03,529.46,85.89z"/>
	
		<linearGradient id="SVGID_13_" gradientUnits="userSpaceOnUse" x1="554.1431" y1="63.1862" x2="526.725" y2="62.3018" gradientTransform="matrix(0.9982 0.0601 -0.0601 0.9982 9.013 -13.4864)">
		<stop  offset="0" style="stop-color:#EA7924"/>
		<stop  offset="1" style="stop-color:#EA7924;stop-opacity:0"/>
	</linearGradient>
	<path class="st15" d="M529.46,85.89c1.44-0.55,5.19,0.43,5.19,0.43c2.69,0.67,16.82,1.11,17.09,0.85c0.26-0.26,1.95-0.69,2.4-0.56
		c0.45,0.12,3.5,0.12,3.99,0.1c0.48-0.02,1.06,0.5,1.06,0.5s1.75-0.02,2.48,0.49c0.74,0.51,1.04,1.12,1.11,1.69
		c0.07,0.57-0.56,1.07-0.56,1.07s0.32,0.25,0.04,0.87c-0.28,0.62-0.52,1.1-0.52,1.1s-0.1,0.25-0.17,0.95
		c-0.06,0.7-1.31,0.93-1.31,0.93s-0.89,1.44-1.92,1.23c-1.02-0.21-3.42-0.75-4.88-0.6c-1.46,0.15-4.36-1.96-4.36-1.96
		s-5.98,1.34-8.92,1.84c-2.94,0.5-11.55-0.86-11.55-0.86s-2.27-0.39-2.82-0.36c-0.55,0.03-1.41,0.02-1.83-0.93
		c-0.42-0.95-0.38-2.24-0.49-3.09c-0.11-0.85-0.57-2.35-0.65-2.72c-0.08-0.36-0.36-2.92-0.36-2.92s-1.15-2.93-1.22-4.03
		c-0.06-1.1-0.17-1.89-0.17-1.89s-0.92-2.15-1.02-2.75c-0.1-0.61,0.18-3.13,0.23-3.38c0.05-0.25,0.12-3.07,0.12-3.07
		s1.58-3.34,4.29-3.01c2.71,0.33,5.8,1.92,5.71,5.48c-0.04,1.3-0.16,2.06-0.29,2.5c-0.15,0.48-0.13,1,0.09,1.45
		c0.3,0.64,0.89,1.39,0.95,2.43c0.11,1.89-0.13,4.05-1.1,5.14C530.08,82.79,529.41,85.03,529.46,85.89z"/>
	<path class="st0" d="M522.61,90.19c2.05-0.59,7.1,1.22,7.1,1.22c3.62,1.25,23.04,3.59,23.44,3.27c0.4-0.32,2.77-0.71,3.38-0.48
		c0.61,0.22,4.81,0.59,5.48,0.63s1.4,0.82,1.4,0.82s2.41,0.18,3.36,0.98c0.95,0.79,1.3,1.67,1.32,2.46c0.03,0.79-0.9,1.41-0.9,1.41
		s0.41,0.38-0.05,1.2c-0.46,0.82-0.85,1.45-0.85,1.45s-0.17,0.33-0.35,1.29c-0.17,0.95-1.92,1.11-1.92,1.11s-1.41,1.88-2.79,1.46
		c-1.39-0.42-4.63-1.46-6.65-1.43c-2.03,0.03-5.76-3.24-5.76-3.24s-8.41,1.12-12.52,1.44c-4.11,0.32-15.81-2.6-15.81-2.6
		s-3.08-0.82-3.84-0.84c-0.76-0.02-1.94-0.14-2.41-1.51c-0.47-1.37-0.24-3.14-0.29-4.32c-0.05-1.19-0.49-3.31-0.56-3.82
		c-0.07-0.51-0.13-4.06-0.13-4.06s-1.23-4.18-1.18-5.7c0.05-1.52-0.01-2.62-0.01-2.62s-1.01-3.07-1.07-3.92
		c-0.06-0.85,0.64-4.29,0.73-4.63c0.09-0.34,0.55-4.21,0.55-4.21s2.58-4.4,6.28-3.62c3.7,0.79,7.76,3.36,7.19,8.25
		c-0.21,1.79-0.47,2.82-0.71,3.41c-0.26,0.64-0.3,1.36-0.06,2.01c0.34,0.92,1.05,2.03,1.01,3.47c-0.08,2.62-0.67,5.56-2.15,6.95
		C523.83,86,522.65,89.01,522.61,90.19z"/>
	<g>
		
			<rect x="553.22" y="99.3" transform="matrix(0.3937 -0.9192 0.9192 0.3937 247.2597 576.2557)" class="st16" width="14.49" height="2.79"/>
	</g>
	<path class="st17" d="M515.67,50.45c0,0-0.99,2.83-1.51,3.82c-0.52,0.99-5.41,4.79-6,6.97c-0.6,2.18-1.08,6.28-1.08,6.28
		s-1.06,3.3-0.73,5.11c0.33,1.81,0.65,3.24,0.65,3.24s-0.15,5.76,0.87,8.32c0,0-0.25,2.61,0.19,4.25c0.44,1.65,4.5,9.46,4.94,10.35
		c0.44,0.9,0.25,2.65,0.75,5.37c0.5,2.72-1.87,7.39-1.87,7.39c-1.03,2.47-3.22,8.56-3.11,11.93c0.06,1.96,0.7,3.59,1.57,4.87
		c0.54,1.35,1.29,2.78,2.39,4.29c6.71,9.26,21.16,21.94,21.16,21.94l6.78,8.13c0,0-6.64,0.96-10.06,4.84
		c-3.41,3.88-11.16,11.82-19.13,16.11c0,0-1.77,1.03-4.85,1.41c-3.09,0.38-5.36,2.29-4.29,5.3c1.07,3.02,3.83,4.32,4.4,6.06
		c0.58,1.74,2.18,3.31,2.85,5.51c0.66,2.2,4.28,8.09,6.74,8.69c0,0,1.66,0.78,1.8,0.22c0.15-0.56,0.77,0.39,1.56,0.43
		c0.79,0.05,1.4-0.6,1.4-0.6s0.53,0.6,1,0.29c0.47-0.31,0.65-1.32-0.23-1.83c-0.62-0.36-2.1-2.3-3.31-4.31
		c-0.02-0.33-0.03-0.55-0.03-0.55s-1.31-2.69,0.24-9.64c1.55-6.95,11.66-10.77,16.74-13.98c1.75-1.11,4.75-3.29,7.93-5.76
		c4.11-2.43,8.6-5.26,10.44-6.99c0,0,1.54-0.78,1.42-3.09c0.66-0.7,1.07-1.23,1.12-1.53c0.34-1.91-1.25-9.39-6.23-19.11
		c-3.99-7.8-11.22-16.14-13.94-19.14c-0.12-0.89-0.17-2.07,0.18-2.93c0.18-0.45,0.69-1.68,0.54-2.8c-0.16-1.11-0.36-3.72,0.37-5.57
		c0.73-1.85,2.59-5.96,2.65-11.16c0.06-5.2,1.05-5.45,1.23-6.62s-0.06-3.65-0.31-4.58c-0.25-0.93,0.27-2.05,0.24-2.94
		c-0.03-0.88-1.33-7.15-1.33-7.15s0.67-1.62,0.57-3.11s-6.08-12.48-6.08-12.48s-1.78-3.87-2.07-4.3c-0.29-0.43-1.14-1.07-1.93-1.49
		c-0.79-0.42-1.84-0.89-2.25-1.65l0.02-0.31c0,0,0.27-1.56,2.08-3.25c1.81-1.68,3.76-1.15,5.81-1.5c2.05-0.35,1.93-1.41,2.09-1.85
		c0.16-0.45-0.46-1.71-0.52-2.27c-0.06-0.55,0.43-1.22,0.54-1.72s-0.62-0.94-0.62-0.94c0.88-0.4,0.71-1.28,0.71-1.28
		s-0.06-0.5-0.4-1.22c-0.34-0.72,0.27-1,0.27-1s1.44-0.07,1.88-0.96c0.43-0.89-0.63-1.82-0.63-1.82s-0.9-0.88-2.19-2.2
		c-1.29-1.32-0.74-1.6-0.74-1.6c0.43-1.34,0.32-1.67,0.32-1.67c-0.07-1.55-2.95-6.13-2.95-6.13c1.11-0.23,0.93-1.34,0.93-1.34
		c-0.13-1.44-1.74-2.14-3.47-2.63c-1.72-0.48-1.83-0.26-2.78-0.25c-0.94,0.01-1.28-0.26-3.38-0.13c-2.11,0.13-3.83-0.02-6.32,0.73
		c-2.49,0.75-4.3,2.26-5.18,3.22c-0.88,0.95-2.07,3.63-2.39,4.63c-0.32,1-0.47,2.5-0.74,3.39c-0.27,0.89,0.08,2.66,0.32,3.71
		c0.23,1.05,3.8,7.56,3.91,7.95c0.12,0.39,0.88,0.88,0.88,0.88L515.67,50.45z"/>
	<path class="st17" d="M515.67,50.45c0,0-0.99,2.83-1.51,3.82c-0.52,0.99-5.41,4.79-6,6.97c-0.6,2.18-1.08,6.28-1.08,6.28
		s-1.06,3.3-0.73,5.11c0.33,1.81,0.65,3.24,0.65,3.24s-0.15,5.76,0.87,8.32c0,0-0.25,2.61,0.19,4.25c0.44,1.65,4.5,9.46,4.94,10.35
		c0.44,0.9,0.25,2.65,0.75,5.37c0.5,2.72-1.87,7.39-1.87,7.39c-1.03,2.47-3.22,8.56-3.11,11.93c0.06,1.96,0.7,3.59,1.57,4.87
		c0.54,1.35,1.29,2.78,2.39,4.29c6.71,9.26,21.16,21.94,21.16,21.94l6.78,8.13c0,0-6.64,0.96-10.06,4.84
		c-3.41,3.88-11.16,11.82-19.13,16.11c0,0-1.77,1.03-4.85,1.41c-3.09,0.38-5.36,2.29-4.29,5.3c1.07,3.02,3.83,4.32,4.4,6.06
		c0.58,1.74,2.18,3.31,2.85,5.51c0.66,2.2,4.28,8.09,6.74,8.69c0,0,1.66,0.78,1.8,0.22c0.15-0.56,0.77,0.39,1.56,0.43
		c0.79,0.05,1.4-0.6,1.4-0.6s0.53,0.6,1,0.29c0.47-0.31,0.65-1.32-0.23-1.83c-0.62-0.36-2.1-2.3-3.31-4.31
		c-0.02-0.33-0.03-0.55-0.03-0.55s-1.31-2.69,0.24-9.64c1.55-6.95,11.66-10.77,16.74-13.98c1.75-1.11,4.75-3.29,7.93-5.76
		c4.11-2.43,8.6-5.26,10.44-6.99c0,0,1.54-0.78,1.42-3.09c0.66-0.7,1.07-1.23,1.12-1.53c0.34-1.91-1.25-9.39-6.23-19.11
		c-3.99-7.8-11.22-16.14-13.94-19.14c-0.12-0.89-0.17-2.07,0.18-2.93c0.18-0.45,0.69-1.68,0.54-2.8c-0.16-1.11-0.36-3.72,0.37-5.57
		c0.73-1.85,2.59-5.96,2.65-11.16c0.06-5.2,1.05-5.45,1.23-6.62s-0.06-3.65-0.31-4.58c-0.25-0.93,0.27-2.05,0.24-2.94
		c-0.03-0.88-1.33-7.15-1.33-7.15s0.67-1.62,0.57-3.11s-6.08-12.48-6.08-12.48s-1.78-3.87-2.07-4.3c-0.29-0.43-1.14-1.07-1.93-1.49
		c-0.79-0.42-1.84-0.89-2.25-1.65l0.02-0.31c0,0,0.27-1.56,2.08-3.25c1.81-1.68,3.76-1.15,5.81-1.5c2.05-0.35,1.93-1.41,2.09-1.85
		c0.16-0.45-0.46-1.71-0.52-2.27c-0.06-0.55,0.43-1.22,0.54-1.72s-0.62-0.94-0.62-0.94c0.88-0.4,0.71-1.28,0.71-1.28
		s-0.06-0.5-0.4-1.22c-0.34-0.72,0.27-1,0.27-1s1.44-0.07,1.88-0.96c0.43-0.89-0.63-1.82-0.63-1.82s-0.9-0.88-2.19-2.2
		c-1.29-1.32-0.74-1.6-0.74-1.6c0.43-1.34,0.32-1.67,0.32-1.67c-0.07-1.55-2.95-6.13-2.95-6.13c1.11-0.23,0.93-1.34,0.93-1.34
		c-0.13-1.44-1.74-2.14-3.47-2.63c-1.72-0.48-1.83-0.26-2.78-0.25c-0.94,0.01-1.28-0.26-3.38-0.13c-2.11,0.13-3.83-0.02-6.32,0.73
		c-2.49,0.75-4.3,2.26-5.18,3.22c-0.88,0.95-2.07,3.63-2.39,4.63c-0.32,1-0.47,2.5-0.74,3.39c-0.27,0.89,0.08,2.66,0.32,3.71
		c0.23,1.05,3.8,7.56,3.91,7.95c0.12,0.39,0.88,0.88,0.88,0.88L515.67,50.45z"/>
	<path class="st17" d="M515.67,50.45c0,0-0.99,2.83-1.51,3.82c-0.52,0.99-5.41,4.79-6,6.97c-0.6,2.18-1.08,6.28-1.08,6.28
		s-1.06,3.3-0.73,5.11c0.33,1.81,0.65,3.24,0.65,3.24s-0.15,5.76,0.87,8.32c0,0-0.25,2.61,0.19,4.25c0.44,1.65,4.5,9.46,4.94,10.35
		c0.44,0.9,0.25,2.65,0.75,5.37c0.5,2.72-1.87,7.39-1.87,7.39c-1.03,2.47-3.22,8.56-3.11,11.93c0.06,1.96,0.7,3.59,1.57,4.87
		c0.54,1.35,1.29,2.78,2.39,4.29c6.71,9.26,21.16,21.94,21.16,21.94l6.78,8.13c0,0-6.64,0.96-10.06,4.84
		c-3.41,3.88-11.16,11.82-19.13,16.11c0,0-1.77,1.03-4.85,1.41c-3.09,0.38-5.36,2.29-4.29,5.3c1.07,3.02,3.83,4.32,4.4,6.06
		c0.58,1.74,2.18,3.31,2.85,5.51c0.66,2.2,4.28,8.09,6.74,8.69c0,0,1.66,0.78,1.8,0.22c0.15-0.56,0.77,0.39,1.56,0.43
		c0.79,0.05,1.4-0.6,1.4-0.6s0.53,0.6,1,0.29c0.47-0.31,0.65-1.32-0.23-1.83c-0.62-0.36-2.1-2.3-3.31-4.31
		c-0.02-0.33-0.03-0.55-0.03-0.55s-1.31-2.69,0.24-9.64c1.55-6.95,11.66-10.77,16.74-13.98c1.75-1.11,4.75-3.29,7.93-5.76
		c4.11-2.43,8.6-5.26,10.44-6.99c0,0,1.54-0.78,1.42-3.09c0.66-0.7,1.07-1.23,1.12-1.53c0.34-1.91-1.25-9.39-6.23-19.11
		c-3.99-7.8-11.22-16.14-13.94-19.14c-0.12-0.89-0.17-2.07,0.18-2.93c0.18-0.45,0.69-1.68,0.54-2.8c-0.16-1.11-0.36-3.72,0.37-5.57
		c0.73-1.85,2.59-5.96,2.65-11.16c0.06-5.2,1.05-5.45,1.23-6.62s-0.06-3.65-0.31-4.58c-0.25-0.93,0.27-2.05,0.24-2.94
		c-0.03-0.88-1.33-7.15-1.33-7.15s0.67-1.62,0.57-3.11s-6.08-12.48-6.08-12.48s-1.78-3.87-2.07-4.3c-0.29-0.43-1.14-1.07-1.93-1.49
		c-0.79-0.42-1.84-0.89-2.25-1.65l0.02-0.31c0,0,0.27-1.56,2.08-3.25c1.81-1.68,3.76-1.15,5.81-1.5c2.05-0.35,1.93-1.41,2.09-1.85
		c0.16-0.45-0.46-1.71-0.52-2.27c-0.06-0.55,0.43-1.22,0.54-1.72s-0.62-0.94-0.62-0.94c0.88-0.4,0.71-1.28,0.71-1.28
		s-0.06-0.5-0.4-1.22c-0.34-0.72,0.27-1,0.27-1s1.44-0.07,1.88-0.96c0.43-0.89-0.63-1.82-0.63-1.82s-0.9-0.88-2.19-2.2
		c-1.29-1.32-0.74-1.6-0.74-1.6c0.43-1.34,0.32-1.67,0.32-1.67c-0.07-1.55-2.95-6.13-2.95-6.13c1.11-0.23,0.93-1.34,0.93-1.34
		c-0.13-1.44-1.74-2.14-3.47-2.63c-1.72-0.48-1.83-0.26-2.78-0.25c-0.94,0.01-1.28-0.26-3.38-0.13c-2.11,0.13-3.83-0.02-6.32,0.73
		c-2.49,0.75-4.3,2.26-5.18,3.22c-0.88,0.95-2.07,3.63-2.39,4.63c-0.32,1-0.47,2.5-0.74,3.39c-0.27,0.89,0.08,2.66,0.32,3.71
		c0.23,1.05,3.8,7.56,3.91,7.95c0.12,0.39,0.88,0.88,0.88,0.88L515.67,50.45z"/>
	
		<linearGradient id="SVGID_14_" gradientUnits="userSpaceOnUse" x1="533.1424" y1="169.2308" x2="518.3229" y2="116.6218" gradientTransform="matrix(0.9982 0.0601 -0.0601 0.9982 9.013 -13.4864)">
		<stop  offset="0" style="stop-color:#EA7924"/>
		<stop  offset="1" style="stop-color:#EA7924;stop-opacity:0"/>
	</linearGradient>
	<path class="st18" d="M511.16,116.88c0,0-5.16,6.5,1.55,15.76c6.71,9.26,21.16,21.94,21.16,21.94l6.78,8.13
		c0,0-6.64,0.96-10.06,4.84s-11.16,11.82-19.13,16.11c0,0-1.77,1.03-4.85,1.41c-3.09,0.38-5.36,2.29-4.29,5.3
		c1.07,3.02,3.83,4.32,4.4,6.06c0.58,1.74,2.18,3.31,2.85,5.51c0.66,2.2,4.28,8.09,6.74,8.69c0,0,1.66,0.78,1.8,0.22
		c0.15-0.56,0.77,0.39,1.56,0.43c0.79,0.05,1.4-0.6,1.4-0.6s0.53,0.6,1,0.29c0.47-0.31,0.65-1.32-0.23-1.83
		c-0.88-0.51-3.49-4.18-4.59-6.75c-1.09-2.56-4.02-4.9-1.3-10.41c2.72-5.51,19.37-12.46,19.37-12.46s14.79-8.08,18.52-11.6
		c0,0,1.87-0.91,1.36-3.78c-0.51-2.87-2.01-11.93-5.53-17.48c-3.53-5.55-15.89-22.75-15.89-22.75l-3.79-4.88
		C529.99,119.04,521.16,109.2,511.16,116.88z"/>
	<g>
		<g>
			<polygon class="st16" points="558.07,95 555.28,95.15 557.42,86.07 560.12,86.75 			"/>
		</g>
		<path class="st19" d="M554.5,86.58c0,0,3.47-0.19,4.08,0.7c0.61,0.89,1.48,3.07,0.95,3.47c-0.53,0.4-1.28,0.26-1.58,0
			c-0.29-0.26-1.81-2.3-1.81-2.3l-2.21,0.22L554.5,86.58z"/>
		<path class="st19" d="M559.85,88.77l-1.49,0.86c0,0-0.84,0.84-0.86,1.44c-0.02,0.6,1.25,0.47,1.25,0.47s-1.26,0.42-1.35,1.25
			c-0.09,0.83,1.16,0.83,1.16,0.83s-0.99,0.08-1.29,0.69c-0.3,0.62,0.91,1.03,0.91,1.03l1.88-0.95L559.85,88.77z"/>
	</g>
	
		<linearGradient id="SVGID_15_" gradientUnits="userSpaceOnUse" x1="546.8561" y1="88.2883" x2="493.0143" y2="37.4941" gradientTransform="matrix(0.9982 0.0601 -0.0601 0.9982 9.013 -13.4864)">
		<stop  offset="0" style="stop-color:#EA7924"/>
		<stop  offset="1" style="stop-color:#EA7924;stop-opacity:0"/>
	</linearGradient>
	<path class="st20" d="M523.45,90.27c2.05-0.59,6.27,1.15,6.27,1.15c3.62,1.25,23.04,3.59,23.44,3.27c0.4-0.32,2.77-0.71,3.38-0.48
		c0.61,0.22,4.81,0.59,5.48,0.63s1.4,0.82,1.4,0.82s2.41,0.18,3.36,0.98c0.95,0.79,1.3,1.67,1.32,2.46c0.03,0.79-0.9,1.41-0.9,1.41
		s0.41,0.38-0.05,1.2c-0.46,0.82-0.85,1.45-0.85,1.45s-0.17,0.33-0.35,1.29c-0.17,0.95-1.92,1.11-1.92,1.11s-1.41,1.88-2.79,1.46
		c-1.39-0.42-4.63-1.46-6.65-1.43c-2.03,0.03-5.76-3.24-5.76-3.24s-8.41,1.12-12.52,1.44c-4.11,0.32-15.81-2.6-15.81-2.6
		s-3.08-0.82-3.84-0.84c-0.76-0.02-1.94-0.14-2.41-1.51c-0.47-1.37-0.24-3.14-0.29-4.32c-0.05-1.19-0.49-3.31-0.56-3.82
		c-0.07-0.51-1.5-4.14-1.5-4.14s-1.03-4.17-0.99-5.69c0.05-1.52-1.12-5.13-1.12-5.13s-1.01-3.07-1.07-3.92
		c-0.06-0.85,0.64-4.29,0.73-4.63c0.09-0.34,1.7-2.92,1.7-2.92s3.72-3.12,7.42-2.34c3.7,0.79,7.76,3.36,7.19,8.25
		c-0.21,1.79-0.47,2.82-0.71,3.41c-0.26,0.64-0.3,1.36-0.06,2.01c0.34,0.92,1.05,2.03,1.01,3.47c-0.08,2.62,0.27,6.14-1.21,7.53
		C524.78,86.58,523.48,89.09,523.45,90.27z"/>
	<path class="st4" d="M563,94.56c0.76-1.28,1.53-1.99,2.53-1.52c2.55,1.2,2.83,13.37-0.3,24.75c-3.14,11.37-16.98,49.25-16.57,62.94
		c0.4,13.69-10.08,42.31-22.5,39.11"/>
</g>
</svg>
